<?xml version="1.0" standalone="no"?><!DOCTYPE svg PUBLIC "-//W3C//DTD SVG 1.1//EN" "http://www.w3.org/Graphics/SVG/1.1/DTD/svg11.dtd">
<svg t="1640838338834" class="icon" viewBox="0 0 1024 1024" version="1.1"
    xmlns="http://www.w3.org/2000/svg" p-id="1708"
    xmlns:xlink="http://www.w3.org/1999/xlink" width="200" height="200" fill="#1890ff">
    <defs>
        <style type="text/css"></style>
    </defs>
    <path d="M191.328 584.256a189.088 189.088 0 0 0-189.408 189.44 186.24 186.24 0 0 0 13.376 70.112 189.504 189.504 0 1 0 176.032-259.552z m59.072 191.104v20H201.664v27.552h48.736v20.128H201.664v40.064h-25.056v-40.064H126.08v-20.128h50.528v-27.552H126.08v-20h43.104l-52.576-90.24h28.256c24.576 44.8 39.488 73.312 44.8 85.312h0.48c1.824-4.992 6.72-14.944 14.72-30.016l30.08-55.328h26.688l-53.088 90.24h41.856v0.032z" p-id="1709"></path>
    <path d="M562.336 418.016v-18.304c0-14.816-15.648-22.656-30.464-22.656h-76.672c-14.816 0-32.224 6.944-32.224 22.656v135.872l43.552 19.168 95.808-136.736z m-209.024 76.64V303.04c0-14.784-13.952-21.792-28.704-21.792H247.904c-13.952 0-25.28 7.008-25.28 21.792v191.616l57.472-36.608 73.216 36.608z m409.376-212.512V66.976c0-14.784-9.6-20.896-24.448-20.896h-76.64c-13.92 0-29.632 6.112-29.632 20.896v232.576l52.32-77.536 78.4 60.128z m209.024 120.192V231.616c0-14.784-10.464-28.736-25.28-28.736h-76.64c-14.848 0-28.736 13.056-28.736 28.736v111.488l80.192 61.856 50.464-2.624z m-590.08 462.464H1024v-60.928H398.24a227.84 227.84 0 0 1-16.608 60.928z m113.632-155.04l-72.288-34.816v85.376h139.36v-142.816l-67.072 92.256z m396.32-177.664l-50.528-37.44v265.632h130.656v-231.68l-80.128 3.488z m25.28-80.128l-221.248-170.72-216.896 328.384-198.624-100.16-62.368 39.104c14.624 3.072 28.768 7.488 42.208 13.184l22.784-13.952 207.264 105.376 214.208-322.272 200.416 152.448 119.392-6.08v-30.496l-107.136 5.184z m-210.784-60.96l-74.08 109.728v259.552h130.688V433.696l-56.608-42.688z" p-id="1710"></path>
</svg>