<?xml version="1.0" standalone="no"?><!DOCTYPE svg PUBLIC "-//W3C//DTD SVG 1.1//EN" "http://www.w3.org/Graphics/SVG/1.1/DTD/svg11.dtd"><svg t="1654160641964" class="icon" viewBox="0 0 1024 1024" version="1.1" xmlns="http://www.w3.org/2000/svg" p-id="2850" xmlns:xlink="http://www.w3.org/1999/xlink" width="32" height="32"><defs><style type="text/css">@font-face { font-family: feedback-iconfont; src: url("//at.alicdn.com/t/font_1031158_u69w8yhxdu.woff2?t=1630033759944") format("woff2"), url("//at.alicdn.com/t/font_1031158_u69w8yhxdu.woff?t=1630033759944") format("woff"), url("//at.alicdn.com/t/font_1031158_u69w8yhxdu.ttf?t=1630033759944") format("truetype"); }
</style></defs><path d="M398.575 565.67H123.21c-33 0-60 27-60 60v273.735c0 33 27 60 60 60h275.364c33 0 60-27 60-60V625.67c0.001-33-26.999-60-59.999-60z m0 333.628a0.901 0.901 0 0 1-0.107 0.107h-275.15a0.901 0.901 0 0 1-0.107-0.107v-273.52a0.901 0.901 0 0 1 0.107-0.107h275.149v-0.001c0.037 0.031 0.076 0.07 0.108 0.108v273.52zM899.21 63.801H623.772c-33 0-60 27-60 60v273.735c0 33 27 60 60 60H899.21c33 0 60-27 60-60V123.801c0-33-27-60-60-60z m0.001 333.628a0.901 0.901 0 0 1-0.107 0.107H623.88a0.901 0.901 0 0 1-0.107-0.107v-273.52a0.901 0.901 0 0 1 0.107-0.107h275.223v-0.001c0.037 0.031 0.076 0.07 0.108 0.108v273.52zM398.649 63.801H123.21c-33 0-60 27-60 60v273.735c0 33 27 60 60 60h275.438c33 0 60-27 60-60V123.801c0.001-33-26.999-60-59.999-60z m0 333.628a0.901 0.901 0 0 1-0.107 0.107H123.318a0.901 0.901 0 0 1-0.107-0.107v-273.52a0.901 0.901 0 0 1 0.107-0.107h275.223v-0.001c0.037 0.031 0.076 0.07 0.108 0.108v273.52zM899.21 565.976h-274c-33 0-60 26.988-60 59.973v273.879c0 32.985 27 59.973 60 59.973h180c16.5 0 30-13.494 30-29.987s-13.5-29.987-30-29.987h-180V625.949h274v182.919c0 16.493 13.5 29.987 30 29.987s30-13.494 30-29.987V625.949c0-32.985-27-59.973-60-59.973z" p-id="2851" fill="#ffffff"></path></svg>