<?xml version="1.0" standalone="no"?><!DOCTYPE svg PUBLIC "-//W3C//DTD SVG 1.1//EN" "http://www.w3.org/Graphics/SVG/1.1/DTD/svg11.dtd">
<svg t="1641873526417" class="icon" viewBox="0 0 1024 1024" version="1.1"
    xmlns="http://www.w3.org/2000/svg" p-id="2147"
    xmlns:xlink="http://www.w3.org/1999/xlink" width="200" height="200" fill="#1890ff">
    <defs>
        <style type="text/css"></style>
    </defs>
    <path d="M179.2 104.533333c-42.3424 0-76.8 34.4576-76.8 76.8s34.4576 76.8 76.8 76.8 76.8-34.4576 76.8-76.8-34.4576-76.8-76.8-76.8z m0 119.466667c-23.517867 0-42.666667-19.131733-42.666667-42.666667s19.1488-42.666667 42.666667-42.666666 42.666667 19.131733 42.666667 42.666666-19.1488 42.666667-42.666667 42.666667z" fill="" p-id="2148"></path>
    <path d="M853.333333 155.733333m-17.066666 0a17.066667 17.066667 0 1 0 34.133333 0 17.066667 17.066667 0 1 0-34.133333 0Z" fill="" p-id="2149"></path>
    <path d="M785.066667 155.733333m-17.066667 0a17.066667 17.066667 0 1 0 34.133333 0 17.066667 17.066667 0 1 0-34.133333 0Z" fill="" p-id="2150"></path>
    <path d="M887.466667 206.933333m-17.066667 0a17.066667 17.066667 0 1 0 34.133333 0 17.066667 17.066667 0 1 0-34.133333 0Z" fill="" p-id="2151"></path>
    <path d="M819.2 206.933333m-17.066667 0a17.066667 17.066667 0 1 0 34.133334 0 17.066667 17.066667 0 1 0-34.133334 0Z" fill="" p-id="2152"></path>
    <path d="M716.8 155.733333m-17.066667 0a17.066667 17.066667 0 1 0 34.133334 0 17.066667 17.066667 0 1 0-34.133334 0Z" fill="" p-id="2153"></path>
    <path d="M750.933333 206.933333m-17.066666 0a17.066667 17.066667 0 1 0 34.133333 0 17.066667 17.066667 0 1 0-34.133333 0Z" fill="" p-id="2154"></path>
    <path d="M648.533333 155.733333m-17.066666 0a17.066667 17.066667 0 1 0 34.133333 0 17.066667 17.066667 0 1 0-34.133333 0Z" fill="" p-id="2155"></path>
    <path d="M682.666667 206.933333m-17.066667 0a17.066667 17.066667 0 1 0 34.133333 0 17.066667 17.066667 0 1 0-34.133333 0Z" fill="" p-id="2156"></path>
    <path d="M580.266667 155.733333m-17.066667 0a17.066667 17.066667 0 1 0 34.133333 0 17.066667 17.066667 0 1 0-34.133333 0Z" fill="" p-id="2157"></path>
    <path d="M614.4 206.933333m-17.066667 0a17.066667 17.066667 0 1 0 34.133334 0 17.066667 17.066667 0 1 0-34.133334 0Z" fill="" p-id="2158"></path>
    <path d="M179.2 428.8c-42.3424 0-76.8 34.4576-76.8 76.8s34.4576 76.8 76.8 76.8 76.8-34.4576 76.8-76.8-34.4576-76.8-76.8-76.8z m0 119.466667c-23.517867 0-42.666667-19.131733-42.666667-42.666667s19.1488-42.666667 42.666667-42.666667 42.666667 19.131733 42.666667 42.666667-19.1488 42.666667-42.666667 42.666667zM179.2 753.066667c-42.3424 0-76.8 34.4576-76.8 76.8s34.4576 76.8 76.8 76.8 76.8-34.4576 76.8-76.8-34.4576-76.8-76.8-76.8z m0 119.466666c-23.517867 0-42.666667-19.131733-42.666667-42.666666s19.1488-42.666667 42.666667-42.666667 42.666667 19.131733 42.666667 42.666667-19.1488 42.666667-42.666667 42.666666z" fill="" p-id="2159"></path>
    <path d="M1024 281.890133V80.776533A78.728533 78.728533 0 0 0 945.3568 2.133333H78.6432A78.728533 78.728533 0 0 0 0 80.776533v201.096534c0 25.070933 11.997867 47.172267 30.327467 61.576533C11.997867 357.870933 0 379.989333 0 405.0432v201.096533c0 25.070933 11.997867 47.172267 30.327467 61.576534C11.997867 682.1376 0 704.256 0 729.309867v201.096533a78.728533 78.728533 0 0 0 78.6432 78.6432h475.733333c45.7728 8.430933 95.9488 12.8 145.3568 12.8 148.002133 0 304.059733-38.382933 322.474667-111.837867a16.896 16.896 0 0 0 1.792-7.611733v-473.6a16.7424 16.7424 0 0 0-1.6384-7.099733c-5.922133-24.9856-28.125867-46.0288-60.791467-62.890667A78.7456 78.7456 0 0 0 1024 281.890133z m-989.866667 324.266667V405.0432a44.561067 44.561067 0 0 1 44.509867-44.509867h356.010667c-30.8736 16.571733-51.831467 37.0176-57.5488 61.166934a16.810667 16.810667 0 0 0-1.6384 7.099733v221.866667H78.6432A44.561067 44.561067 0 0 1 34.133333 606.1568z m386.1504-104.738133l2.372267 1.4848c3.003733 1.877333 6.126933 3.720533 9.386667 5.5296 0.938667 0.512 1.8432 1.041067 2.781866 1.536 3.976533 2.133333 8.106667 4.215467 12.407467 6.212266 0.682667 0.324267 1.416533 0.631467 2.0992 0.938667 3.771733 1.723733 7.645867 3.3792 11.639467 5.000533l3.515733 1.416534a365.9776 365.9776 0 0 0 29.883733 10.308266l4.027734 1.194667c4.9152 1.4336 9.898667 2.833067 15.0016 4.164267l1.211733 0.324266c5.495467 1.416533 11.1104 2.730667 16.810667 4.010667l4.317866 0.938667c4.881067 1.058133 9.813333 2.065067 14.7968 3.0208l2.9696 0.580266c5.853867 1.092267 11.776 2.0992 17.7664 3.054934l4.283734 0.6656c4.9664 0.768 9.966933 1.4848 15.018666 2.1504l4.1472 0.546133c6.109867 0.768 12.253867 1.4848 18.449067 2.133333 1.245867 0.136533 2.5088 0.238933 3.754667 0.3584 5.205333 0.512 10.4448 0.9728 15.684266 1.399467l4.744534 0.375467c6.263467 0.4608 12.561067 0.8704 18.858666 1.194666l2.696534 0.119467c5.546667 0.273067 11.1104 0.477867 16.674133 0.631467l5.034667 0.136533c6.365867 0.136533 12.731733 0.238933 19.080533 0.238933s12.714667-0.1024 19.080533-0.238933l5.034667-0.136533c5.563733-0.1536 11.1104-0.3584 16.674133-0.631467l2.696534-0.119467a859.921067 859.921067 0 0 0 39.287466-2.9696l3.754667-0.3584c6.1952-0.648533 12.3392-1.348267 18.449067-2.133333l4.1472-0.546133c5.034667-0.6656 10.052267-1.3824 15.018666-2.1504 1.4336-0.221867 2.8672-0.426667 4.283734-0.6656a686.933333 686.933333 0 0 0 17.7664-3.054934l2.9696-0.580266c5.000533-0.955733 9.9328-1.962667 14.7968-3.0208l4.317866-0.938667c5.6832-1.28 11.3152-2.594133 16.810667-4.010667l1.211733-0.324266c5.102933-1.314133 10.0864-2.7136 15.0016-4.164267l4.027734-1.194667c4.9664-1.501867 9.847467-3.054933 14.592-4.676266l0.8192-0.273067a383.7952 383.7952 0 0 0 17.988266-6.775467c3.9936-1.621333 7.867733-3.2768 11.639467-5.000533 0.699733-0.324267 1.416533-0.6144 2.0992-0.938667 4.3008-1.9968 8.413867-4.078933 12.407467-6.212266l2.781866-1.536c3.242667-1.792 6.365867-3.6352 9.386667-5.5296 0.785067-0.494933 1.604267-0.9728 2.372267-1.4848a158.378667 158.378667 0 0 0 10.052266-7.0656l0.648534-0.443734v85.128534a16.64 16.64 0 0 0-0.3584 6.024533c0.238933 1.245867 0.4096 2.474667 0.4096 3.7376 0 1.877333-0.529067 3.7888-0.989867 5.6832a29.5936 29.5936 0 0 1-3.413333 8.277333 44.049067 44.049067 0 0 1-6.946134 9.181867c-0.631467 0.682667-1.262933 1.365333-1.9456 2.048-36.130133 34.952533-142.7456 66.525867-276.821333 66.525867-133.9904 0-240.554667-31.5392-276.753067-66.474667a63.726933 63.726933 0 0 1-2.116266-2.235733 42.615467 42.615467 0 0 1-6.912-9.181867 29.166933 29.166933 0 0 1-3.3792-8.277333c-0.4608-1.8432-0.989867-3.703467-0.989867-5.546667 0-1.211733 0.1536-2.423467 0.3584-3.618133a17.015467 17.015467 0 0 0-0.3584-6.570667v-84.718933l0.648533 0.443733c3.157333 2.423467 6.5024 4.778667 10.0352 7.082667z m567.1424 251.0848a44.049067 44.049067 0 0 1-8.925866 13.038933c-0.631467 0.682667-1.262933 1.365333-1.9456 2.048-36.130133 34.952533-142.7456 66.525867-276.821334 66.525867-133.9904 0-240.554667-31.5392-276.753066-66.474667a63.726933 63.726933 0 0 1-2.116267-2.235733 42.615467 42.615467 0 0 1-6.912-9.181867 29.166933 29.166933 0 0 1-3.3792-8.277333c-0.392533-1.604267-0.802133-3.2256-0.853333-4.829867v-2.048c0.068267-0.768 0.1024-1.536 0.221866-2.304 0.238933-1.467733-0.085333-2.901333-0.238933-4.352L409.6 650.666667v-3.1744c0.682667 0.529067 1.4848 1.024 2.2016 1.536a172.202667 172.202667 0 0 0 12.509867 8.430933 213.265067 213.265067 0 0 0 9.489066 5.5808c35.601067 19.4048 84.548267 33.416533 138.666667 41.898667l1.2288 0.187733c17.4592 2.7136 35.3792 4.829867 53.6064 6.382933 3.874133 0.324267 7.7312 0.6656 11.639467 0.938667a937.250133 937.250133 0 0 0 26.897066 1.467733c3.003733 0.119467 6.007467 0.256 9.028267 0.341334 8.311467 0.238933 16.605867 0.4096 24.8832 0.4096 8.260267 0 16.554667-0.1536 24.832-0.392534 3.037867-0.085333 6.058667-0.221867 9.096533-0.341333a911.940267 911.940267 0 0 0 26.862934-1.467733c3.84-0.273067 7.6288-0.597333 11.451733-0.9216a784.162133 784.162133 0 0 0 54.101333-6.434134l0.785067-0.119466c59.136-9.250133 112.0256-25.1392 148.155733-47.428267a144.861867 144.861867 0 0 0 12.458667-8.379733c0.768-0.5632 1.6384-1.092267 2.389333-1.672534v85.128534a16.64 16.64 0 0 0-0.3584 6.024533c0.170667 1.245867 0.341333 2.474667 0.341334 3.7376 0 1.877333-0.529067 3.7888-0.989867 5.6832a29.696 29.696 0 0 1-1.450667 4.420267zM78.6432 974.933333A44.561067 44.561067 0 0 1 34.133333 930.423467V729.309867a44.561067 44.561067 0 0 1 44.509867-44.509867H375.466667v234.666667h5.051733c0.273067 0.631467 0.6656 1.245867 0.9728 1.877333a72.260267 72.260267 0 0 0 6.690133 11.264 104.072533 104.072533 0 0 0 9.045334 10.786133 135.68 135.68 0 0 0 24.405333 19.575467c6.5536 4.215467 13.636267 8.209067 21.2992 11.9808H78.6432zM989.866667 898.030933a17.92 17.92 0 0 0-0.341334 1.604267c-6.980267 42.5472-125.098667 88.098133-289.792 88.098133-52.548267 0-100.266667-4.6592-141.243733-12.356266l0.017067-0.136534c-84.872533-16.059733-131.84-43.178667-144.981334-66.048l-0.034133-0.068266c-0.597333-1.058133-1.024-2.0992-1.4848-3.1232a29.115733 29.115733 0 0 1-2.065067-6.365867l-0.136533-98.389333c0.6144 0.477867 1.348267 0.9216 1.979733 1.399466a172.202667 172.202667 0 0 0 12.509867 8.430934 213.265067 213.265067 0 0 0 9.489067 5.5808c35.601067 19.4048 84.548267 33.416533 138.666666 41.898666l1.2288 0.187734c17.4592 2.7136 35.3792 4.829867 53.6064 6.382933 3.874133 0.324267 7.7312 0.6656 11.639467 0.938667a937.250133 937.250133 0 0 0 26.897067 1.467733c3.003733 0.119467 6.007467 0.256 9.028266 0.341333 8.311467 0.238933 16.605867 0.4096 24.8832 0.4096 8.260267 0 16.554667-0.1536 24.832-0.392533 3.037867-0.085333 6.058667-0.221867 9.096534-0.341333a911.940267 911.940267 0 0 0 26.862933-1.467734c3.84-0.273067 7.6288-0.597333 11.451733-0.9216a784.162133 784.162133 0 0 0 54.101334-6.434133l0.785066-0.119467c59.136-9.250133 112.0256-25.1392 148.155734-47.428266a144.861867 144.861867 0 0 0 12.458666-8.379734c0.768-0.5632 1.6384-1.092267 2.389334-1.672533v96.904533zM989.866667 435.2c0 43.298133-124.091733 91.733333-290.133334 91.733333-166.058667 0-290.133333-48.4352-290.133333-91.733333 0-2.184533 0.529067-4.4032 1.160533-6.621867 0.682667-2.2016 1.604267-4.4544 2.9696-6.775466l0.1536-0.3072c5.6832-9.489067 17.134933-19.694933 34.7648-29.5424a278.1184 278.1184 0 0 1 11.861334-6.0928 268.919467 268.919467 0 0 1 14.7968-6.4512c19.831467-7.901867 43.7248-14.916267 70.621866-20.650667a612.181333 612.181333 0 0 1 25.787734-4.9152c2.338133-0.392533 4.625067-0.802133 6.997333-1.1776 76.407467-11.776 165.546667-11.776 241.954133 0 2.4064 0.375467 4.727467 0.802133 7.099734 1.194667a573.610667 573.610667 0 0 1 25.617066 4.881066C936.584533 376.456533 989.866667 406.8864 989.866667 435.2z m0-153.309867a44.561067 44.561067 0 0 1-44.509867 44.509867h-79.018667c-0.989867-0.221867-2.082133-0.3584-3.072-0.580267a637.764267 637.764267 0 0 0-34.491733-6.468266l-3.4304-0.529067a827.938133 827.938133 0 0 0-125.610667-9.489067c-42.308267 0-85.282133 3.2256-125.576533 9.489067l-3.515733 0.529067a650.922667 650.922667 0 0 0-34.389334 6.4512c-1.006933 0.221867-2.133333 0.3584-3.140266 0.580266H78.6432A44.544 44.544 0 0 1 34.133333 281.890133V80.776533a44.561067 44.561067 0 0 1 44.509867-44.509866h866.696533A44.561067 44.561067 0 0 1 989.866667 80.776533v201.1136z" fill="" p-id="2160"></path>
</svg>