<?xml version="1.0" standalone="no"?><!DOCTYPE svg PUBLIC "-//W3C//DTD SVG 1.1//EN" "http://www.w3.org/Graphics/SVG/1.1/DTD/svg11.dtd"><svg t="1654142408467" class="icon" viewBox="0 0 1024 1024" version="1.1" xmlns="http://www.w3.org/2000/svg" p-id="13401" xmlns:xlink="http://www.w3.org/1999/xlink" width="32" height="32"><defs><style type="text/css">@font-face { font-family: feedback-iconfont; src: url("//at.alicdn.com/t/font_1031158_u69w8yhxdu.woff2?t=1630033759944") format("woff2"), url("//at.alicdn.com/t/font_1031158_u69w8yhxdu.woff?t=1630033759944") format("woff"), url("//at.alicdn.com/t/font_1031158_u69w8yhxdu.ttf?t=1630033759944") format("truetype"); }
</style></defs><path d="M1024 512c0-282.763636-229.236364-512-512-512C229.236364 0 0 229.236364 0 512c0 282.763636 229.236364 512 512 512C794.763636 1024 1024 794.763636 1024 512zM46.545455 512C46.545455 254.929455 254.929455 46.545455 512 46.545455c257.070545 0 465.454545 208.384 465.454545 465.454545s-208.384 465.454545-465.454545 465.454545C254.929455 977.454545 46.545455 769.070545 46.545455 512z" p-id="13402" fill="#ffffff"></path><path d="M594.292364 429.707636 265.122909 265.216l164.584727 329.076364 329.076364 164.584727L594.292364 429.707636zM467.083636 558.731636 340.759273 342.528l216.715636 124.369455L467.083636 558.731636z" p-id="13403" fill="#ffffff"></path></svg>