<?xml version="1.0" standalone="no"?>
<!DOCTYPE svg PUBLIC "-//W3C//DTD SVG 1.1//EN" "http://www.w3.org/Graphics/SVG/1.1/DTD/svg11.dtd">
<svg t="1640838295564" class="icon" viewBox="0 0 1024 1024" version="1.1"
    xmlns="http://www.w3.org/2000/svg" p-id="619"
    xmlns:xlink="http://www.w3.org/1999/xlink" width="200" height="200" fill="#1890ff">
    <defs>
        <style type="text/css"></style>
    </defs>
    <path d="M232.2 945.4c-18.8 0-34.1-15.3-34.1-34.1V224.9c0-18.8 15.3-34.1 34.1-34.1s34.1 15.3 34.1 34.1v686.4c0 18.8-15.3 34.1-34.1 34.1z" p-id="620"></path>
    <path d="M334.1 254.7L232.2 78.2 130.3 254.7zM836.3 826.2H115.8c-18.8 0-34.1-15.3-34.1-34.1S97 758 115.8 758h720.4c18.8 0 34.1 15.3 34.1 34.1s-15.2 34.1-34 34.1z" p-id="621"></path>
    <path d="M806.4 894l176.5-101.9-176.5-101.9zM232.2 826.2c-8.7 0-17.4-3.3-24.1-10-13.3-13.3-13.3-34.9 0-48.2l634.8-634.8c13.3-13.3 34.9-13.3 48.2 0 13.3 13.3 13.3 34.9 0 48.2L256.3 816.2c-6.7 6.6-15.4 10-24.1 10zM491.1 364.8c-56.8 0-103-46.2-103-103s46.2-103 103-103 103 46.2 103 103-46.2 103-103 103z m0-137.9c-19.2 0-34.8 15.6-34.8 34.8 0 19.2 15.6 34.9 34.8 34.9 19.2 0 34.9-15.6 34.9-34.9 0-19.1-15.6-34.8-34.9-34.8z" p-id="622"></path>
    <path d="M840.5 541.3c-56.8 0-103-46.2-103-103s46.2-103 103-103 103 46.2 103 103-46.2 103-103 103z m0-137.8c-19.2 0-34.8 15.6-34.8 34.9 0 19.2 15.6 34.8 34.8 34.8 19.2 0 34.9-15.6 34.9-34.8 0-19.3-15.7-34.9-34.9-34.9z" p-id="623"></path>
    <path d="M629 723.1c-56.8 0-103-46.2-103-103s46.2-103 103-103 103 46.2 103 103-46.2 103-103 103z m0-137.8c-19.2 0-34.9 15.6-34.9 34.9 0 19.2 15.6 34.8 34.9 34.8 19.2 0 34.8-15.6 34.8-34.8 0.1-19.3-15.6-34.9-34.8-34.9z" p-id="624"></path>
</svg>