<?xml version="1.0" standalone="no"?><!DOCTYPE svg PUBLIC "-//W3C//DTD SVG 1.1//EN" "http://www.w3.org/Graphics/SVG/1.1/DTD/svg11.dtd">
<svg t="1640838318929" class="icon" viewBox="0 0 1024 1024" version="1.1"
    xmlns="http://www.w3.org/2000/svg" p-id="1165"
    xmlns:xlink="http://www.w3.org/1999/xlink" width="200" height="200" fill="#1890ff">
    <defs>
        <style type="text/css"></style>
    </defs>
    <path d="M718.116571 864.036571h115.053715a36.571429 36.571429 0 1 1 0 73.142858H191.268571a36.571429 36.571429 0 1 1 0-73.142858h134.802286l62.098286-146.285714h-203.337143a146.285714 146.285714 0 0 1-146.285714-146.285714V20.699429h800.548571a146.285714 146.285714 0 0 1 146.285714 146.285714v550.765714H450.121143a28.891429 28.891429 0 0 1-1.316572 3.949714l-60.416 142.336h256.950858l-53.101715-67.876571a28.672 28.672 0 1 1 45.202286-35.328l80.676571 103.204571z m-606.354285-770.194285v477.622857a73.142857 73.142857 0 0 0 73.142857 73.142857h727.332571v-477.622857a73.142857 73.142857 0 0 0-73.142857-73.142857H111.762286z m149.942857 410.624H206.994286V233.691429h146.285714v47.177142H261.632v69.632H345.965714v47.177143H261.632v106.788572zM516.973714 280.868571v223.597715h-54.857143V280.868571H389.12v-47.177142h201.142857v47.177142h-73.142857z m171.081143 129.243429v94.354286H633.417143V233.691429h88.283428c63.853714 0 95.817143 28.525714 95.817143 85.650285 0 27.794286-9.654857 50.029714-28.964571 66.706286-19.236571 16.749714-43.373714 24.722286-72.265143 24.064h-28.16z m0-132.754286v87.990857h27.940572c38.034286 0 57.051429-14.848 57.051428-44.544 0-28.964571-18.797714-43.446857-56.393143-43.446857h-28.598857z" p-id="1166"></path>
</svg>