<?xml version="1.0" standalone="no"?><!DOCTYPE svg PUBLIC "-//W3C//DTD SVG 1.1//EN" "http://www.w3.org/Graphics/SVG/1.1/DTD/svg11.dtd"><svg t="1654140339715" class="icon" viewBox="0 0 1382 1024" version="1.1" xmlns="http://www.w3.org/2000/svg" p-id="9220" xmlns:xlink="http://www.w3.org/1999/xlink" width="43.1875" height="32"><defs><style type="text/css">@font-face { font-family: feedback-iconfont; src: url("//at.alicdn.com/t/font_1031158_u69w8yhxdu.woff2?t=1630033759944") format("woff2"), url("//at.alicdn.com/t/font_1031158_u69w8yhxdu.woff?t=1630033759944") format("woff"), url("//at.alicdn.com/t/font_1031158_u69w8yhxdu.ttf?t=1630033759944") format("truetype"); }
</style></defs><path d="M1098.720126 393.238707A429.040555 429.040555 0 0 0 665.583719 0.036863a434.16037 434.16037 0 0 0-430.064517 393.201844A272.886176 272.886176 0 0 0 0.00768 665.612902a278.005992 278.005992 0 0 0 274.422121 274.934102h39.422581v-76.285253h-39.422581a197.112904 197.112904 0 0 1-23.551152-392.689864l62.973733-7.679723V400.918431a354.803227 354.803227 0 0 1 706.022583 0l8.191705 62.973733 54.782028 7.679723A204.792627 204.792627 0 0 1 1255.386486 665.612902a194.041015 194.041015 0 0 1-196.08894 196.600922h-39.422581v78.33318h39.422581a276.470047 276.470047 0 0 0 39.42258-549.356223z" p-id="9221" fill="#d81e06"></path><path d="M949.221508 746.50599l-54.782028-54.782028-188.409217 187.897236V314.905527h-78.33318v557.035947l-180.217512-180.217512-55.294009 54.782028 274.934102 274.422121 282.101844-274.422121z" p-id="9222" fill="#d81e06"></path></svg>