<?xml version="1.0" standalone="no"?><!DOCTYPE svg PUBLIC "-//W3C//DTD SVG 1.1//EN" "http://www.w3.org/Graphics/SVG/1.1/DTD/svg11.dtd"><svg t="1654140913807" class="icon" viewBox="0 0 1664 1024" version="1.1" xmlns="http://www.w3.org/2000/svg" p-id="12831" xmlns:xlink="http://www.w3.org/1999/xlink" width="52" height="32"><defs><style type="text/css">@font-face { font-family: feedback-iconfont; src: url("//at.alicdn.com/t/font_1031158_u69w8yhxdu.woff2?t=1630033759944") format("woff2"), url("//at.alicdn.com/t/font_1031158_u69w8yhxdu.woff?t=1630033759944") format("woff"), url("//at.alicdn.com/t/font_1031158_u69w8yhxdu.ttf?t=1630033759944") format("truetype"); }
</style></defs><path d="M128 32a96 96 0 0 0-96 96v768a96 96 0 0 0 96 96h1408a96 96 0 0 0 96-96V128a96 96 0 0 0-96-96H128z m0-32h1408a128 128 0 0 1 128 128v768a128 128 0 0 1-128 128H128a128 128 0 0 1-128-128V128a128 128 0 0 1 128-128z m664.512 723.2c-113.344-45.408-203.552-112.928-270.624-202.496h260v-46.24h-277.504v-117.504h243.136V310.72h-243.136V203.84h-48.736v106.88h-240.64v46.24h240.64v117.504H178.144v46.24h258.112c-65.632 83.552-155.008 155.008-268.128 214.368 14.592 16.672 25.824 30.624 33.76 41.888 105.824-62.304 190.4-135.424 253.76-219.36v260.64h48.736v-261.248c58.944 86.88 143.328 157.696 253.12 212.512 11.68-16.672 23.328-32.096 35.008-46.24zM1201.504 271.936v532.512h49.376v-63.136h167.488v63.136h49.376V271.936h-266.24zM877.76 483.2v44.992h124.384c-11.68 102.08-56.672 184.8-135.008 248.128 12.512 14.176 24.16 28.544 35.008 43.136 64.992-54.592 109.376-121.888 133.12-201.888 31.264 36.672 66.88 81.664 106.88 135.008l42.496-31.872a3671.36 3671.36 0 0 0-135.616-161.888c1.248-9.568 2.496-19.808 3.744-30.624h123.136V483.2h-119.36c2.08-39.168 3.328-87.488 3.744-144.992h103.136V293.216H972.8c8.32-24.992 16.448-51.68 24.384-80l-48.736-11.264c-19.168 79.584-44.992 150.4-77.504 212.512 12.928 4.576 28.736 10.848 47.488 18.752 13.344-27.904 26.24-59.584 38.752-95.008h53.12a2586.496 2586.496 0 0 1-4.384 144.992h-128.128z m540.608-165.024v378.112H1250.88V318.176h167.488z" p-id="12832" fill="#2c2c2c"></path></svg>