<?xml version="1.0" standalone="no"?><!DOCTYPE svg PUBLIC "-//W3C//DTD SVG 1.1//EN" "http://www.w3.org/Graphics/SVG/1.1/DTD/svg11.dtd"><svg t="1654140425823" class="icon" viewBox="0 0 1024 1024" version="1.1" xmlns="http://www.w3.org/2000/svg" p-id="10125" xmlns:xlink="http://www.w3.org/1999/xlink" width="32" height="32"><defs><style type="text/css">@font-face { font-family: feedback-iconfont; src: url("//at.alicdn.com/t/font_1031158_u69w8yhxdu.woff2?t=1630033759944") format("woff2"), url("//at.alicdn.com/t/font_1031158_u69w8yhxdu.woff?t=1630033759944") format("woff"), url("//at.alicdn.com/t/font_1031158_u69w8yhxdu.ttf?t=1630033759944") format("truetype"); }
</style></defs><path d="M160.832 503.68 130.24 442.432 127.424 442.432 136.32 503.68l0 203.136L64 706.816 64 314.432l55.616 0 147.52 207.552 29.504 59.584 2.816 0L290.496 521.984l0-204.8L362.88 317.184l0 392.384L307.2 709.568 160.832 503.68z" p-id="10126" fill="#2c2c2c"></path><path d="M848.704 620.544l-119.68 0-29.504 86.272L623.296 706.816l140.224-392.384 56.192 0L960 706.816l-80.128 0L848.704 620.544zM748.544 559.36 832 559.36l-28.928-86.848-11.712-61.248-2.816 0-11.712 61.76L748.544 559.36z" p-id="10127" fill="#2c2c2c"></path><path d="M582.464 314.432 407.488 709.568 473.344 709.568 647.872 314.432Z" p-id="10128" fill="#2c2c2c"></path></svg>