<?xml version="1.0" standalone="no"?><!DOCTYPE svg PUBLIC "-//W3C//DTD SVG 1.1//EN" "http://www.w3.org/Graphics/SVG/1.1/DTD/svg11.dtd"><svg t="1654140154768" class="icon" viewBox="0 0 1024 1024" version="1.1" xmlns="http://www.w3.org/2000/svg" p-id="8056" xmlns:xlink="http://www.w3.org/1999/xlink" width="32" height="32"><defs><style type="text/css">@font-face { font-family: feedback-iconfont; src: url("//at.alicdn.com/t/font_1031158_u69w8yhxdu.woff2?t=1630033759944") format("woff2"), url("//at.alicdn.com/t/font_1031158_u69w8yhxdu.woff?t=1630033759944") format("woff"), url("//at.alicdn.com/t/font_1031158_u69w8yhxdu.ttf?t=1630033759944") format("truetype"); }
</style></defs><path d="M499.599575 66.187445c-246.554372 0-447.133643 200.579271-447.133643 447.119317 0 246.559489 200.579271 447.134667 447.133643 447.134667 246.545162 0 447.12034-200.575178 447.12034-447.134667C946.719916 266.765693 746.144738 66.187445 499.599575 66.187445L499.599575 66.187445zM499.599575 929.249009c-229.351572 0-415.937131-186.590676-415.937131-415.94327 0-229.337245 186.585559-415.922804 415.937131-415.922804 229.338269 0 415.928944 186.585559 415.928944 415.922804C915.52852 742.659357 728.937844 929.249009 499.599575 929.249009L499.599575 929.249009zM818.027905 457.640951M369.890398 553.076534c-6.92369 10.175757-15.363919 23.098068-25.329898 38.758746-9.976212 15.668865-20.247136 32.348756-30.823006 50.048883-10.586103 17.701151-21.057595 35.30611-31.43392 52.79646-10.376325 17.500583-19.2269 33.169447-26.550703 46.998407-5.702885-6.924713-11.500938-12.512988-17.395182-16.784268-5.903453-4.273327-12.722766-8.030907-20.446681-11.292184 9.765411-10.986215 20.141736-24.204262 31.127951-39.673581 10.986215-15.459087 21.763676-32.04381 32.348756-49.743938 10.576893-17.701151 20.847817-35.801391 30.824029-54.32221 9.965979-18.511609 19.016099-36.317137 27.160593-53.407374 4.472871 8.954953 9.155521 16.175401 14.037714 21.667485C358.294292 543.616068 363.7874 548.604686 369.890398 553.076534zM333.87923 425.511183c-17.909905-21.973454-35.916001-41.704844-54.017264-59.204403-18.110473-17.49035-35.706223-32.749892-52.79646-45.777603l26.245757-31.127951c19.531845 16.279778 38.653345 33.474392 57.373709 51.575656 18.711154 18.110473 36.412304 35.916001 53.101405 53.40635L333.87923 425.511183zM510.274706 614.113679c-5.703909 2.850931-12.311397 8.144494-19.836791 15.869433-7.534604 7.735172-18.215874 20.552082-32.04381 38.452777-4.482081 5.702885-9.975189 12.20702-16.479323 19.531845-6.513344 7.323802-13.533224 14.858406-21.057595 22.582321-7.534604 7.735172-15.163351 15.46932-22.88829 23.194258-7.735172 7.724938-15.259542 14.647605-22.583344 20.751626-5.29254-5.702885-10.480702-10.376325-15.563464-14.038738-5.092995-3.66139-12.111852-7.53358-21.057595-11.596106 26.855648-16.269545 51.365878-36.107359 73.54911-59.510372 22.172999-23.393803 43.230594-52.386114 63.172785-86.976934 10.986215 9.766434 22.373567 15.870456 34.17945 18.312064 4.882194 0.819668 7.525394 2.651386 7.934716 5.493108C517.999644 609.029894 515.557012 611.67207 510.274706 614.113679zM477.314013 357.150236c-22.793122 0-43.945885 0.410346-63.47773 1.220804-19.531845 0.819668-37.031405 2.040473-52.490491 3.662413l0-40.894386c17.900695 2.041496 37.737486 3.566222 59.510372 4.578272 21.763676 1.020236 44.861744 1.52575 69.275783 1.52575 3.252067-7.724938 6.102998-15.048741 8.544607-21.972431 2.442632-6.91448 4.77884-14.038738 7.018857-21.36254 2.232854-7.323802 4.369517-14.953573 6.40999-22.88829 2.030239-7.934716 4.063549-16.984836 6.104021-27.160593 8.544607 4.482081 17.289782 7.934716 26.243711 10.376325 8.945743 2.441609 17.702174 4.072759 26.245757 4.883217 4.063549 0.410346 6.303566 2.345418 6.713912 5.799076 0.402159 3.461845-1.63115 6.208399-6.101975 8.239662-4.072759 2.040473-9.261944 7.629771-15.565511 16.784268-6.313799 9.155521-14.552437 24.929786-24.718985 47.303352l87.892793 0c28.886911 0 54.321186-0.505513 76.29464-1.52575 21.973454-1.011027 42.515303-2.536776 61.646012-4.578272l0 41.504276c-18.310018-2.031263-38.556131-3.452635-60.731176-4.272303-22.183232-0.810459-47.913243-1.220804-77.209476-1.220804l-100.709703 0c-7.735172 17.909905-15.059997 33.980929-21.973454 48.219211-6.92369 14.248516-13.637602 27.676339-20.141736 40.283472-6.513344 12.617365-13.122879 24.720008-19.836791 36.317137-6.713912 11.597129-13.732769 23.298636-21.057595 35.095309l123.903961 0c0-26.855648-0.409322-50.049906-1.220804-69.581752-0.819668-19.531845-2.240017-35.601846-4.273327-48.218188 8.945743 1.630127 17.492396 2.850931 25.63689 3.662413 8.134261 0.819668 16.268522 1.020236 24.413016 0.60989 6.503111-0.400113 10.07138 1.220804 10.68127 4.883217 0.611937 3.662413-1.935072 6.713912-7.628748 9.155521-3.2623 1.220804-5.798053 4.377704-7.628748 9.460466-1.830695 5.092995-2.7486 12.512988-2.7486 22.278399l0 67.750033c33.361829 0.410346 61.742203 0.209778 85.146239-0.610914 23.393803-0.810459 41.809221-2.231831 55.238069-4.272303l0 37.842887c-11.80793-0.811482-29.202089-1.52575-52.18657-2.136663-22.994714-0.610914-52.396347-0.915859-88.197738-0.915859L596.334757 723.367989c0 11.796674-1.019213 21.457708-3.049452 28.992311-2.042519 7.52437-6.313799 13.732769-12.818957 18.614963-6.513344 4.882194-15.773242 8.639774-27.771507 11.292184-12.005428 2.641153-27.981285 4.777817-47.913243 6.408967-0.409322-17.500583-7.322779-34.390251-20.751626-50.66082 17.090237 3.25309 30.517037 5.28333 40.284495 6.104021 9.765411 0.810459 17.289782 0.401136 22.582321-1.219781 5.284353-1.63115 8.639774-4.682649 10.07138-9.155521 1.421372-4.472871 2.136663-10.576893 2.136663-18.311041L559.104831 546.973536c-30.92943 0-56.258305 0.105401-75.990718 0.304945-19.741623 0.209778-35.706223 0.715291-47.913243 1.52575-12.20702 0.820692-21.467941 1.936095-27.771507 3.356444-6.313799 1.430582-11.292184 3.1569-14.953573 5.188162-0.410346-6.91448-1.735527-14.038738-3.967358-21.36254-2.241041-7.324826-4.988618-13.628392-8.239662-18.921955 5.692652-0.810459 10.881838-2.746554 15.563464-5.799076 4.673439-3.051499 10.376325-9.860579 17.090237-20.446681 6.713912-10.57587 15.154141-26.340925 25.329898-47.303352C448.417893 422.564062 461.445604 393.773342 477.314013 357.150236zM750.145865 746.561223c-8.144494-12.20702-16.994046-24.614607-26.549679-37.231973-9.565866-12.607132-19.532869-24.815175-29.90817-36.622082-10.377348-11.796674-20.751626-22.88829-31.128975-33.264615s-20.246113-19.426445-29.602202-27.160593l27.465538-25.635867c9.356089 8.54563 19.627013 18.520819 30.823006 29.90817 11.186783 11.396561 22.278399 23.193235 33.265638 35.401278 10.986215 12.20702 21.361517 24.214495 31.128975 36.011168 9.765411 11.805884 18.310018 22.382776 25.634844 31.738865L750.145865 746.561223z" p-id="8057" fill="#1296db"></path></svg>