<?xml version="1.0" standalone="no"?><!DOCTYPE svg PUBLIC "-//W3C//DTD SVG 1.1//EN" "http://www.w3.org/Graphics/SVG/1.1/DTD/svg11.dtd">
<svg t="1699066345106" class="icon" viewBox="0 0 1024 1024" version="1.1"
    xmlns="http://www.w3.org/2000/svg" p-id="1656"
    xmlns:xlink="http://www.w3.org/1999/xlink" width="64" height="64">
    <path d="M580 477.7h-9.8l37.6 209.1c24.8-8.8 47.4-22.2 67.5-39.6-20.6-24.8-37.1-52.5-50-81.9l39.6-5.2c10.8 22.2 23.2 42.2 37.6 59.3 29.3-35.5 51.5-82.9 67.5-142.2l-190 0.5z m149.9 169.5c22.7 19.6 48.4 34 77.2 42.7l18.1 5.7-10.8 38.6-18.1-5.7c-34.5-10.8-66.5-28.8-93.7-53.1-25.3 22.7-55.1 40.2-87.5 51l25.3 141.1H489.8l-20.1 92.2h472.4c22.2 0 40.2-18.1 40.2-40.2v-683c0-22.2-18.1-40.2-40.2-40.2H520.3l31.4 175.2-1-0.5 3.6 19.1 0.5-2.6 8.8 50H661v-40.2h75.3v40.2H862v40.2h-52.5c-17.7 70.6-44.6 127.3-79.6 169.5z m-281.3 220H82.3C38 867.2 2 831.1 2 786.8V104.2c0-44.8 36-80.3 80.3-80.3h401.8l24.8 132.4h432.8c44.3 0 80.3 36 80.3 80.3v683.1c0 44.3-36 80.3-80.3 80.3H419.8l28.8-132.8zM259.1 558.1v-42.2h-79.3v-62.4h73.7v-41.7h-73.7v-53.1h79.3V317H133.3v241.1h125.8z m193.6 0V437.5c0-21.7-5.2-38.6-15-50.5s-24.8-17.5-44.3-17.5c-11.4 0-21.7 2.1-30.4 6.7s-16 11.9-20.6 20.6h-2.6l-6.2-23.7h-35V558h45.3v-87c0-21.7 3.1-37.1 8.8-46.9 5.7-9.3 15-13.9 27.8-13.9 9.3 0 16 3.1 20.6 9.8 4.1 6.7 6.7 16.5 6.7 29.8V558l44.9 0.1z" p-id="1657"></path>
</svg>