<?xml version="1.0" standalone="no"?><!DOCTYPE svg PUBLIC "-//W3C//DTD SVG 1.1//EN" "http://www.w3.org/Graphics/SVG/1.1/DTD/svg11.dtd">
<svg t="1640846164550" class="icon" viewBox="0 0 1031 1024" version="1.1"
    xmlns="http://www.w3.org/2000/svg" p-id="7545"
    xmlns:xlink="http://www.w3.org/1999/xlink" width="201.3671875" height="200" fill="#1890ff">
    <defs>
        <style type="text/css"></style>
    </defs>
    <path d="M857.6 928 166.4 928c-89.6 0-166.4-70.4-166.4-166.4L0 262.4c0-89.6 70.4-166.4 166.4-166.4l697.6 0c89.6 0 166.4 70.4 166.4 166.4l0 505.6C1024 857.6 953.6 928 857.6 928zM166.4 160C108.8 160 64 204.8 64 262.4l0 505.6c0 57.6 44.8 102.4 102.4 102.4l697.6 0c57.6 0 102.4-44.8 102.4-102.4L966.4 262.4c0-57.6-44.8-102.4-102.4-102.4L166.4 160z" p-id="7546"></path>
    <path d="M364.8 576c-76.8 0-140.8-64-140.8-140.8 0-76.8 64-140.8 140.8-140.8s140.8 64 140.8 140.8C505.6 518.4 441.6 576 364.8 576zM364.8 358.4C320 358.4 281.6 396.8 281.6 435.2S320 512 364.8 512c44.8 0 76.8-32 76.8-76.8S403.2 358.4 364.8 358.4z" p-id="7547"></path>
    <path d="M576 742.4c-12.8 0-25.6-12.8-32-25.6C518.4 595.2 422.4 576 364.8 576S211.2 595.2 192 716.8c-6.4 19.2-19.2 25.6-38.4 25.6C134.4 736 121.6 723.2 128 704c25.6-115.2 115.2-192 236.8-192s217.6 70.4 236.8 192c6.4 19.2-6.4 32-25.6 38.4C576 742.4 576 742.4 576 742.4z" p-id="7548"></path>
    <path d="M864 448l-192 0C652.8 448 640 435.2 640 416S652.8 384 672 384l192 0C883.2 384 896 396.8 896 416S883.2 448 864 448z" p-id="7549"></path>
    <path d="M736 601.6l-64 0c-19.2 0-32-12.8-32-32s12.8-32 32-32l64 0c19.2 0 32 12.8 32 32S755.2 601.6 736 601.6z" p-id="7550"></path>
</svg>