<?xml version="1.0" standalone="no"?><!DOCTYPE svg PUBLIC "-//W3C//DTD SVG 1.1//EN" "http://www.w3.org/Graphics/SVG/1.1/DTD/svg11.dtd">
<svg t="1654074658307" viewBox="0 0 1024 1024" version="1.1"
    xmlns="http://www.w3.org/2000/svg" p-id="2194"
    xmlns:xlink="http://www.w3.org/1999/xlink" width="32" height="32">
    <path stroke-width="30" d="M773.389474 115.873684l70.063158-26.947368c10.778947-2.694737 13.473684-16.168421 10.778947-24.252632-2.694737-10.778947-16.168421-13.473684-24.252632-10.778947l-105.094736 43.115789s-2.694737 0-2.694737 2.694737h-2.694737c-2.694737 0-2.694737 2.694737-2.694737 5.389474s0 2.694737-2.694737 5.389474v2.694736l-2.694737 115.873685c0 10.778947 8.084211 18.863158 18.863158 18.863157 10.778947 0 18.863158-8.084211 18.863158-18.863157l2.694737-83.536843c126.652632 80.842105 202.105263 218.273684 202.105263 369.178948 0 212.884211-150.905263 393.431579-361.094737 431.157895-10.778947 2.694737-16.168421 10.778947-16.168421 21.557894 2.694737 8.084211 10.778947 16.168421 18.863158 16.168421h2.694737c226.357895-40.421053 390.736842-239.831579 390.736842-468.88421 0-161.684211-80.842105-312.589474-215.578947-398.821053zM307.2 916.210526l-2.694737-113.178947c0-10.778947-10.778947-18.863158-18.863158-18.863158-10.778947 0-18.863158 8.084211-18.863158 18.863158v75.452632c-121.263158-80.842105-196.715789-218.273684-196.715789-366.484211C72.757895 288.336842 242.526316 102.4 466.189474 78.147368c10.778947 0 18.863158-10.778947 16.168421-21.557894 0-10.778947-10.778947-18.863158-21.557895-16.168421-242.526316 26.947368-425.768421 229.052632-425.768421 474.273684 0 161.684211 80.842105 309.894737 215.578947 398.821052l-75.452631 35.031579c-10.778947 5.389474-13.473684 16.168421-8.084211 24.252632 2.694737 8.084211 10.778947 10.778947 16.168421 10.778947 2.694737 0 5.389474 0 8.084211-2.694736l105.094737-48.505264h2.694736c2.694737 0 2.694737-2.694737 5.389474-2.694736l2.694737-2.694737 2.694737-2.694737c-2.694737-2.694737-2.694737-5.389474-2.694737-8.084211z" fill="#00d469" p-id="2195"></path>
    <path stroke-width="30" d="M770.694737 358.4c-8.084211-8.084211-18.863158-8.084211-26.947369 0l-266.778947 266.778947-137.431579-137.431579c-8.084211-8.084211-18.863158-8.084211-26.947368 0s-8.084211 18.863158 0 26.947369l150.905263 150.905263c2.694737 2.694737 8.084211 5.389474 13.473684 5.389474s10.778947-2.694737 13.473684-5.389474l280.252632-280.252632c5.389474-8.084211 5.389474-21.557895 0-26.947368z" fill="#00d469" p-id="2196"></path>
</svg>