<svg data-v-2cb57da0="" version="1.0"
    xmlns="http://www.w3.org/2000/svg"
    xmlns:xlink="http://www.w3.org/1999/xlink" width="100%" height="100%" viewBox="0 0 226.000000 66.000000" preserveAspectRatio="xMidYMid meet" color-interpolation-filters="sRGB" style="margin: auto;">
    <!-- <rect data-v-2cb57da0="" x="0" y="0" width="100%" height="100%" fill="#fff" fill-opacity="1" class="background"></rect>
    <rect data-v-2cb57da0="" x="0" y="0" width="100%" height="100%" fill="url(#watermark)" fill-opacity="1" class="watermarklayer"></rect> -->
    <g data-v-2cb57da0="" fill="#333" class="icon-text-wrapper icon-svg-group iconsvg" transform="translate(2,2)">
        <g class="iconsvg-imagesvg" transform="translate(0,0)">
            <g>
                <rect fill="#333" fill-opacity="0" stroke-width="2" x="0" y="0" width="60" height="63.213789034514726" class="image-rect"></rect>
                <svg x="0" y="0" width="60" height="63.213789034514726" filtersec="colorsb1900398867" class="image-svg-svg primary" style="overflow: visible;">
                    <svg xmlns="http://www.w3.org/2000/svg" viewBox="0.006116670090705156 0.006116670090705156 94.90999603271484 99.99388885498047">
                        <defs>
                            <linearGradient id="65d6c37f-5b5d-4a91-9aa2-f272f5eccee5" x1="34.93" y1="68.73" x2="94.92" y2="68.73" gradientUnits="userSpaceOnUse">
                                <stop offset="0" stop-color="#0ED3AC"></stop>
                                <stop offset="1" stop-color="#1e9eed"></stop>
                            </linearGradient>
                            <linearGradient id="dfd56bc0-43ba-4af7-94ec-3b1da7d6ed19" x1="16.82" y1="45.25" x2="48.77" y2="87.85" gradientUnits="userSpaceOnUse">
                                <stop offset="0" stop-color="#1e9eed"></stop>
                                <stop offset="1" stop-color="#0057FE"></stop>
                            </linearGradient>
                            <linearGradient id="fc645442-cfc1-4fff-93cf-f94cdf731380" x1="50.23" y1="22.05" x2="102.44" y2="79.48" gradientUnits="userSpaceOnUse">
                                <stop offset="0" stop-color="#1e9eed"></stop>
                                <stop offset="1" stop-color="#0057FE"></stop>
                            </linearGradient>
                            <linearGradient id="21bd3b15-b7b2-4f5f-a1e7-b149489d88f1" x1="38.39" y1="22.98" x2="18.96" y2="53.89" gradientUnits="userSpaceOnUse">
                                <stop offset="0" stop-color="#0ED3AC"></stop>
                                <stop offset="1" stop-color="#1e9eed"></stop>
                            </linearGradient>
                        </defs>
                        <g>
                            <g>
                                <path d="M47.46 100a12.53 12.53 0 0 1-12.53-12.53c0-13 5.39-25.52 15.17-35.34 9.28-9.32 21.05-14.66 32.28-14.66a12.53 12.53 0 1 1 0 25.06C73.54 62.53 60 73.7 60 87.47A12.53 12.53 0 0 1 47.46 100z" opacity=".8" fill="url(#65d6c37f-5b5d-4a91-9aa2-f272f5eccee5)"></path>
                                <path d="M47.46 100a12.53 12.53 0 0 1-12.53-12.53c0-13.77-13.56-24.94-22.4-24.94a12.53 12.53 0 0 1 0-25.06c11.24 0 23 5.34 32.28 14.66C54.6 62 60 74.5 60 87.47A12.53 12.53 0 0 1 47.46 100z" opacity=".8" fill="url(#dfd56bc0-43ba-4af7-94ec-3b1da7d6ed19)"></path>
                                <path d="M82.38 62.53c-11.23 0-23-5.34-32.28-14.66-9.78-9.82-15.17-22.37-15.17-35.34a12.53 12.53 0 0 1 25.06 0C60 26.3 73.54 37.47 82.38 37.47a12.53 12.53 0 1 1 0 25.06z" opacity=".8" fill="url(#fc645442-cfc1-4fff-93cf-f94cdf731380)"></path>
                                <path d="M12.53 62.53a12.53 12.53 0 0 1 0-25.06c8.84 0 22.4-11.17 22.4-24.94a12.53 12.53 0 0 1 25.06 0c0 13-5.39 25.52-15.18 35.34-9.27 9.32-21.04 14.66-32.28 14.66z" opacity=".8" fill="url(#21bd3b15-b7b2-4f5f-a1e7-b149489d88f1)"></path>
                            </g>
                        </g>
                    </svg>
                </svg>                <!----></g>
        </g>
        <g transform="translate(75,3.773294448852539)">
            <g data-gra="path-name" fill-rule="" class="tp-name iconsvg-namesvg" transform="translate(0,0)">
                <g transform="scale(0.6799999999999998)">
                    <g>
                        <path d="M45.76 5.98L45.76 5.98 2.27 5.98 2.27 0.84 43.23 0.84 43.23-18.33 4.55-18.33Q3.45-18.33 2.7-19.08 1.95-19.82 1.95-20.87L1.95-20.87 1.95-43.94Q1.95-45.05 2.7-45.79 3.45-46.54 4.55-46.54L4.55-46.54 47.97-46.54 47.97-41.41 7.08-41.41 7.08-23.46 45.76-23.46Q46.87-23.46 47.61-22.72 48.36-21.97 48.36-20.87L48.36-20.87 48.36 3.45Q48.36 4.49 47.61 5.23 46.87 5.98 45.76 5.98L45.76 5.98 45.76 5.98ZM102.38-46.54L102.38-41.41 79.89-41.41 79.89 5.53 74.75 5.53 74.75-41.41 52.26-41.41 52.26-46.54 102.38-46.54ZM157.63 6.7L157.63 6.7 151.91-13.52 116.94-13.52 111.22 6.7 106.28 5.27 120.45-44.72Q120.7-45.57 121.36-46.05 122-46.54 122.92-46.54L122.92-46.54 145.93-46.54Q146.84-46.54 147.49-46.05 148.13-45.57 148.4-44.72L148.4-44.72 162.56 5.27 157.63 6.7ZM143.97-41.41L124.87-41.41 118.43-18.66 150.41-18.66 143.97-41.41ZM208.59 6.44L208.59 6.44 200.59-12.87 171.54-12.87 171.54 5.66 166.47 5.66 166.47-43.94Q166.47-45.05 167.18-45.79 167.9-46.54 169-46.54L169-46.54 210.47-46.54Q211.58-46.54 212.29-45.79 213.01-45.05 213.01-43.94L213.01-43.94 213.01-15.41Q213.01-14.37 212.29-13.62 211.58-12.87 210.47-12.87L210.47-12.87 206.12-12.87 213.33 4.49 208.59 6.44ZM171.54-41.41L171.54-18 207.87-18 207.87-41.41 171.54-41.41Z" transform="translate(-1.9500000476837158, 46.540000915527344)"></path>
                    </g>                    <!---->                    <!---->                    <!---->                    <!---->                    <!---->                    <!---->                    <!----></g>
            </g>
            <g data-gra="path-slogan" fill-rule="" class="tp-slogan iconsvg-slogansvg" fill="#333" transform="translate(-0.585845947265625,42.20320129394531)">                <!---->                <!---->
                <g transform="scale(1, 1)">
                    <g transform="scale(1.2000000000000002)">
                        <path d="M10.70-4.94L10.70-4.94L1.30-4.94Q1.13-4.94 1.01-5.06Q0.90-5.17 0.90-5.34L0.90-5.34L0.90-9.22Q0.90-9.38 1.01-9.50Q1.13-9.61 1.30-9.61L1.30-9.61L10.70-9.61Q10.87-9.61 10.99-9.50Q11.10-9.38 11.10-9.22L11.10-9.22L11.10-5.34Q11.10-5.17 10.99-5.06Q10.87-4.94 10.70-4.94L10.70-4.94ZM11.35-3.13L11.35-3.13L6.41-3.13L6.41-1.93L11.09-1.93L11.09-1.14L6.41-1.14L6.41 0.24L11.38 0.24L11.38 1.03L0.62 1.03L0.62 0.24L5.62 0.24L5.62-1.14L0.91-1.14L0.91-1.93L5.62-1.93L5.62-3.13L1.13-3.13Q0.91-3.13 0.79-3.34L0.79-3.34Q0.67-3.53 0.79-3.73L0.79-3.73L1.33-4.67L2.02-4.27L1.82-3.92L5.62-3.92L5.62-4.68L6.41-4.68L6.41-3.92L11.35-3.92L11.35-3.13ZM10.31-7.67L10.31-8.82L1.69-8.82L1.69-7.67L10.31-7.67ZM1.69-6.89L1.69-5.74L10.31-5.74L10.31-6.89L1.69-6.89ZM32.90 0.88L32.90 0.88L23.10 0.88Q22.89 0.88 22.78 0.71L22.78 0.71Q22.67 0.54 22.74 0.34L22.74 0.34L24.83-4.97L22.68-4.97L22.68-5.76L33.32-5.76L33.32-4.97L25.68-4.97L23.68 0.10L32.32 0.10L30.72-3.82L31.46-4.12L33.27 0.34Q33.35 0.54 33.23 0.71L33.23 0.71Q33.10 0.88 32.90 0.88L32.90 0.88ZM32.93-9.52L32.93-8.72L23.08-8.72L23.08-9.52L32.93-9.52ZM49.38-4.81L49.38-4.81L48.49-6.91L47.72-6.91L47.72-4.72L46.93-4.72L46.93-6.92L46.22-6.92L45.40-5.00L46.09-5.00L46.09-4.26L49.59-4.26Q49.76-4.26 49.87-4.15Q49.99-4.04 49.99-3.88L49.99-3.88L49.99-1.66Q49.99-1.55 49.92-1.45Q49.86-1.36 49.76-1.31L49.76-1.31L48.33-0.60L49.80 0.23L49.41 0.91L47.48-0.19L44.83 1.12L44.48 0.42L46.66-0.66L45.50-1.32Q45.30-1.44 45.30-1.66L45.30-1.66L45.30-3.48L44.62-3.48L44.62-4.26L45.30-4.26L45.30-4.82L44.60-5.12L45.37-6.92L44.64-6.92L44.64-7.70L46.93-7.70L46.93-9.67L47.72-9.67L47.72-7.70L48.43-7.70L49.29-9.56L50.01-9.23L49.30-7.70L50.07-7.70L50.07-6.91L49.34-6.91L50.11-5.12L49.38-4.81ZM54.68 1.21L54.68 1.21L52.72-2.45L50.37 1.26L49.70 0.84L52.30-3.25L50.11-7.38L50.80-7.75L52.78-4.02L53.86-5.70L53.86-8.03L50.46-8.03Q50.23-8.03 50.11-8.23L50.11-8.23Q50-8.44 50.12-8.64L50.12-8.64L50.89-9.86L51.56-9.44L51.16-8.82L55.30-8.82L55.30-8.03L54.66-8.03L54.66-5.59Q54.66-5.46 54.58-5.38L54.58-5.38L53.22-3.22L55.38 0.84L54.68 1.21ZM46.11-8.14L45.39-7.79L44.71-9.23L45.42-9.56L46.11-8.14ZM47.50-1.07L49.20-1.91L49.20-3.48L46.09-3.48L46.09-1.88L47.50-1.07ZM77.34-4.50L77.34-4.50L74.65-4.50L74.65-3.36L76.84-3.36Q77.00-3.36 77.12-3.25Q77.23-3.13 77.23-2.96L77.23-2.96L77.23 0.64Q77.23 0.80 77.12 0.92Q77.00 1.03 76.84 1.03L76.84 1.03L71.80 1.03Q71.63 1.03 71.51 0.92Q71.40 0.80 71.40 0.64L71.40 0.64L71.40-2.96Q71.40-3.13 71.51-3.25Q71.63-3.36 71.80-3.36L71.80-3.36L73.86-3.36L73.86-4.50L70.97-4.50L70.97-0.91Q70.97-0.82 70.94-0.78L70.94-0.78L70.21 1.16L69.47 0.89L70.19-0.98L70.19-6.70L70.19-6.74L70.19-9.12Q70.19-9.29 70.30-9.40Q70.40-9.52 70.57-9.52L70.57-9.52L76.79-9.52Q76.96-9.52 77.07-9.40Q77.18-9.29 77.18-9.12L77.18-9.12L77.18-6.74Q77.18-6.58 77.07-6.46Q76.96-6.35 76.79-6.35L76.79-6.35L74.65-6.35L74.65-5.29L77.34-5.29L77.34-4.50ZM66.73-1.73L66.73-1.73L66.42-2.45L67.84-3.07L67.84-7.56L66.58-7.56L66.58-8.35L67.84-8.35L67.84-9.67L68.63-9.67L68.63-8.35L69.84-8.35L69.84-7.56L68.63-7.56L68.63-3.42L69.68-3.89L70.00-3.17L68.63-2.56L68.63 0.65Q68.63 0.82 68.51 0.92Q68.40 1.03 68.23 1.03L68.23 1.03L66.77 1.03L66.77 0.25L67.84 0.25L67.84-2.21L66.73-1.73ZM70.97-8.72L70.97-7.14L76.39-7.14L76.39-8.72L70.97-8.72ZM70.97-6.35L70.97-5.29L73.86-5.29L73.86-6.35L70.97-6.35ZM72.19-2.57L72.19 0.25L76.44 0.25L76.44-2.57L72.19-2.57ZM99.38-3.59L99.38-2.80L94.40-2.80L94.40 1.06L93.60 1.06L93.60-2.80L88.62-2.80L88.62-3.59L93.60-3.59L93.60-8.83L89.00-8.83L89.00-9.62L99.00-9.62L99.00-8.83L94.40-8.83L94.40-3.59L96.65-3.59L97.52-8.45L98.28-8.32L97.47-3.59L99.38-3.59ZM91.30-4.02L90.52-3.88L89.72-8.32L90.48-8.46L91.30-4.02ZM120.67 1.08L120.67 1.08L111.36 1.08Q111.19 1.08 111.07 0.97Q110.96 0.85 110.96 0.68L110.96 0.68L110.96-4.31Q110.96-4.48 111.07-4.59Q111.19-4.70 111.36-4.70L111.36-4.70L120.67-4.70Q120.84-4.70 120.95-4.59Q121.06-4.48 121.06-4.31L121.06-4.31L121.06 0.68Q121.06 0.85 120.95 0.97Q120.84 1.08 120.67 1.08L120.67 1.08ZM120.98-5.50L120.98-5.50L111.04-5.50Q110.82-5.50 110.70-5.71L110.70-5.71Q110.58-5.93 110.72-6.12L110.72-6.12L113.38-9.96L114.03-9.52L111.80-6.29L120.20-6.29L118.20-9.02L118.83-9.49L121.30-6.13Q121.44-5.94 121.33-5.71L121.33-5.71Q121.23-5.50 120.98-5.50L120.98-5.50ZM111.75-3.92L111.75 0.29L120.28 0.29L120.28-3.92L111.75-3.92Z" transform="translate(-0.624, 9.96)"></path>
                    </g>
                </g>
            </g>
        </g>
    </g>
    <defs v-gra="od"></defs>
</svg>