<?xml version="1.0" standalone="no"?><!DOCTYPE svg PUBLIC "-//W3C//DTD SVG 1.1//EN" "http://www.w3.org/Graphics/SVG/1.1/DTD/svg11.dtd"><svg t="1654073344606" class="icon" viewBox="0 0 1024 1024" version="1.1" xmlns="http://www.w3.org/2000/svg" p-id="6437" width="32" height="32" xmlns:xlink="http://www.w3.org/1999/xlink"><defs><style type="text/css">@font-face { font-family: feedback-iconfont; src: url("//at.alicdn.com/t/font_1031158_u69w8yhxdu.woff2?t=1630033759944") format("woff2"), url("//at.alicdn.com/t/font_1031158_u69w8yhxdu.woff?t=1630033759944") format("woff"), url("//at.alicdn.com/t/font_1031158_u69w8yhxdu.ttf?t=1630033759944") format("truetype"); }
</style></defs><path d="M960 591.424V368.96c0-0.288 0.16-0.512 0.16-0.768S960 367.68 960 367.424V192a32 32 0 0 0-32-32H96a32 32 0 0 0-32 32v175.424c0 0.288-0.16 0.512-0.16 0.768s0.16 0.48 0.16 0.768v222.464c0 0.288-0.16 0.512-0.16 0.768s0.16 0.48 0.16 0.768V864a32 32 0 0 0 32 32h832a32 32 0 0 0 32-32v-271.04c0-0.288 0.16-0.512 0.16-0.768S960 591.68 960 591.424z m-560-31.232v-160H608v160h-208z m208 64V832h-208v-207.808H608z m-480-224h208v160H128v-160z m544 0h224v160h-224v-160zM896 224v112.192H128V224h768zM128 624.192h208V832H128v-207.808zM672 832v-207.808h224V832h-224z" p-id="6438" fill="#ffffff"></path></svg>