<?xml version="1.0" standalone="no"?><!DOCTYPE svg PUBLIC "-//W3C//DTD SVG 1.1//EN" "http://www.w3.org/Graphics/SVG/1.1/DTD/svg11.dtd"><svg t="1654084000045" class="icon" viewBox="0 0 1024 1024" version="1.1" xmlns="http://www.w3.org/2000/svg" p-id="3268" xmlns:xlink="http://www.w3.org/1999/xlink" width="32" height="32"><defs><style type="text/css">@font-face { font-family: feedback-iconfont; src: url("//at.alicdn.com/t/font_1031158_u69w8yhxdu.woff2?t=1630033759944") format("woff2"), url("//at.alicdn.com/t/font_1031158_u69w8yhxdu.woff?t=1630033759944") format("woff"), url("//at.alicdn.com/t/font_1031158_u69w8yhxdu.ttf?t=1630033759944") format("truetype"); }
</style></defs><path d="M864.213333 591.082667l61.226667 28.053333L517.333333 981.333333 106.666667 619.136l61.226666-28.053333 349.44 311.168 346.88-311.168zM440.832 318.144v385.152h-58.666667V318.144h58.666667z m104.576 0v385.152h-58.666667V318.144h58.666667z m102.037333 0v385.152h-58.666666V318.144h58.666666z m107.136 219.370667v114.773333h-58.666666v-114.773333h58.666666z m-415.786666-153.045334v267.818667h-58.666667V384.469333h58.666667z m415.786666 0v114.773334h-58.666666v-114.773334h58.666666zM517.333333 42.666667l408.106667 359.658666-61.226667 30.592L517.333333 121.749333 167.893333 432.917333 106.666667 402.346667 517.333333 42.666667z" fill="#ffffff" p-id="3269"></path></svg>