<?xml version="1.0" standalone="no"?><!DOCTYPE svg PUBLIC "-//W3C//DTD SVG 1.1//EN" "http://www.w3.org/Graphics/SVG/1.1/DTD/svg11.dtd">
<svg t="1641873777743" class="icon" viewBox="0 0 1024 1024" version="1.1"
    xmlns="http://www.w3.org/2000/svg" p-id="5077"
    xmlns:xlink="http://www.w3.org/1999/xlink" width="200" height="200" fill="#1890ff">
    <defs>
        <style type="text/css"></style>
    </defs>
    <path d="M512 960c-212.032 0-384-57.376-384-128 0-38.624 0-80.864 0-128 0-11.136 5.568-21.696 13.568-32 42.816 55.136 191.68 96 370.432 96s327.616-40.864 370.432-96c8 10.304 13.568 20.864 13.568 32 0 37.056 0 76.384 0 128 0 70.624-172 128-384 128zM512 704c-212.032 0-384-57.376-384-128 0-38.656 0-80.832 0-128 0-6.784 2.56-13.376 6.016-19.904l0 0c1.952-4.096 4.512-8.128 7.552-12.096 42.816 55.104 191.68 96 370.432 96s327.616-40.896 370.432-96c3.072 3.968 5.632 8 7.552 12.096l0 0c3.424 6.528 6.016 13.12 6.016 19.904 0 37.056 0 76.352 0 128 0 70.624-172 128-384 128zM512 448c-212.032 0-384-57.344-384-128 0-20.224 0-41.6 0-64 0-20.352 0-41.472 0-64 0-70.656 171.968-128 384-128s384 57.344 384 128c0 19.968 0 41.152 0 64 0 19.584 0 40.256 0 64 0 70.656-172 128-384 128zM512 128c-141.376 0-256 28.608-256 64s114.624 64 256 64 256-28.608 256-64-114.624-64-256-64z" p-id="5078"></path>
</svg>