<?xml version="1.0" standalone="no"?><!DOCTYPE svg PUBLIC "-//W3C//DTD SVG 1.1//EN" "http://www.w3.org/Graphics/SVG/1.1/DTD/svg11.dtd"><svg t="1654140049687" class="icon" viewBox="0 0 1029 1024" version="1.1" xmlns="http://www.w3.org/2000/svg" p-id="6941" xmlns:xlink="http://www.w3.org/1999/xlink" width="32.15625" height="32"><defs><style type="text/css">@font-face { font-family: feedback-iconfont; src: url("//at.alicdn.com/t/font_1031158_u69w8yhxdu.woff2?t=1630033759944") format("woff2"), url("//at.alicdn.com/t/font_1031158_u69w8yhxdu.woff?t=1630033759944") format("woff"), url("//at.alicdn.com/t/font_1031158_u69w8yhxdu.ttf?t=1630033759944") format("truetype"); }
</style></defs><path d="M1020.835581 368.09697L864.649723 121.793939C850.944672 100.331313 822.500228 93.99596 800.908309 107.442424L21.401238 600.565657c-21.462626 13.705051-27.79798 42.149495-14.351515 63.612121L163.364874 910.480808c13.705051 21.462626 42.149495 27.79798 63.612122 14.222222l779.50707-493.123232c21.462626-13.575758 27.927273-42.020202 14.351515-63.482828z m-31.159596 37.10707L210.168915 898.327273c-6.852525 4.39596-15.90303 2.327273-20.29899-4.525253L33.684066 647.49899c-4.39596-6.852525-2.327273-15.90303 4.525253-20.29899l779.50707-493.123232c6.852525-4.266667 15.90303-2.327273 20.169697 4.654545l156.185859 246.30303c4.39596 6.593939 2.456566 15.644444-4.39596 20.169697zM317.740632 248.888889l12.929293 31.030303 16.808081-29.090909 33.486868-2.715152-22.626262-24.953535 7.628283-32.711111-30.513132 13.834343-28.832323-17.454545 3.620202 33.486869-25.470707 21.721212 32.969697 6.852525zM516.205278 156.444444l-16.161616-29.60808-13.575757 30.90101-33.09899 6.335353 24.953535 22.367677-4.266667 33.357576 29.220202-16.808081 30.383839 14.480808-6.981818-32.969697 23.014141-24.436364-33.486869-3.620202z m302.545455 495.19192l-26.634344-20.428283-0.129292 33.616161-27.79798 18.876768 32.064646 10.60202 9.438384 32.19394 19.911111-27.151515 33.616162 0.90505-19.781818-27.280808 11.377777-31.547475-32.064646 10.214142zM710.015379 785.454545l-12.670707-31.159596-17.066666 28.961617-33.486869 2.456565 22.367677 25.082829-8.016162 32.581818 30.771717-13.446465 28.703031 17.842424-3.361617-33.486868 25.470708-21.721212-32.711112-7.111112z m-199.240404 91.022223l15.903031 29.737373 13.963636-30.642424 33.09899-5.947475-24.824243-22.755555 4.525253-33.357576-29.349495 16.549495-30.254545-14.610101 6.723232 32.840404-23.272727 24.436364 33.486868 3.749495zM212.366895 378.957576l26.50505 20.816161 0.387879-33.616161 27.927273-18.747475-31.935354-10.731313-9.179798-32.323232-20.169697 26.892929-33.616162-1.163637 19.523233 27.410101-11.636364 31.547475 32.19394-10.084848z m-118.303031 145.066666c-3.490909-142.222222 65.680808-282.892929 194.585859-364.347474S574.257804 75.894949 701.611339 139.765657l30.771717-19.39394c-37.624242-21.074747-78.222222-36.460606-120.888889-46.028283-57.018182-12.8-115.070707-14.480808-172.476767-5.042424-59.474747 9.826263-115.717172 31.288889-167.046465 63.870707-51.329293 32.581818-94.771717 74.084848-129.163636 123.604041-33.228283 47.709091-56.630303 100.977778-69.430303 157.866666-9.567677 42.666667-12.929293 85.850505-9.955556 128.905051l30.642424-19.523233zM931.106288 502.30303c3.620202 142.222222-65.551515 282.892929-194.327272 364.347475-128.905051 81.583838-285.608081 83.911111-412.832323 20.040404l-30.771718 19.523232c37.624242 20.945455 78.222222 36.460606 120.888889 46.028283 57.018182 12.8 115.070707 14.480808 172.476768 5.042424 59.474747-9.826263 115.717172-31.288889 166.917172-63.741414 51.329293-32.581818 94.771717-74.084848 129.163636-123.60404 33.09899-47.838384 56.50101-100.977778 69.30101-157.866667 9.567677-42.666667 12.929293-85.850505 9.955556-128.90505L931.106288 502.30303zM381.482046 306.424242c36.072727-22.755556 75.765657-34.909091 115.717172-37.365656l47.579798-30.125253c-62.836364-7.369697-125.80202 6.723232-180.105051 40.985859-54.173737 34.262626-93.866667 85.20404-114.036363 145.066667l47.579798-30.125253c19.264646-35.038384 47.191919-65.680808 83.264646-88.436364z m262.206061 413.608081c-36.072727 22.884848-75.765657 35.038384-115.587879 37.365657l-47.579798 30.125252c62.836364 7.369697 125.80202-6.723232 180.10505-41.115151 54.173737-34.262626 93.866667-85.20404 114.036364-145.066667l-47.579798 30.125253c-19.264646 35.038384-47.321212 65.680808-83.393939 88.565656z m0 0" p-id="6942" fill="#515151"></path><path d="M267.704268 603.410101c-4.39596-8.40404-8.921212-16.290909-13.575757-23.789899L217.667905 602.505051c-8.274747 5.171717-15.515152 10.860606-21.462627 16.80808l-13.187878-1.810101 68.00808-42.666666c-5.042424-8.016162-10.343434-15.773737-16.032323-23.402021l26.117172-5.30101-3.749495 9.050505 6.981818 11.119192 46.933333-29.478788c-5.30101-8.533333-10.860606-16.549495-16.549494-24.177777l27.022222-5.818182-4.137374 10.343434 6.981818 11.119192 35.426263-22.238384 8.791919-22.238384 29.737374 4.783839-70.852526 44.476767c4.008081 6.335354 8.016162 12.024242 12.024243 16.937374l-11.377778 13.834344L314.379016 541.737374l-46.933334 29.478788 12.024243 19.135353-11.765657 13.058586z m101.624243 59.733333c11.765657 18.618182 20.686869 32.323232 27.022222 40.985859l-12.8 15.773737c-8.016162-14.222222-17.583838-30.125253-28.70303-47.709091L282.055783 717.963636c-8.274747 5.171717-15.515152 10.860606-21.462626 16.808081l-13.187879-1.810101 104.339394-65.551515-13.575757-21.591919-47.838384 30.125252 3.490909 5.559596-11.765657 15.256566c-4.783838-8.921212-12.153535-21.333333-22.10909-37.365657-10.084848-16.032323-18.876768-29.349495-26.505051-40.080808l21.20404-4.395959 104.339394-65.551515 4.525253-13.963637 19.00606 2.585859-3.749494 9.050505c17.066667 27.151515 28.961616 45.381818 35.555555 54.561616l-10.860606 14.610101-5.042424-8.016162-45.89899 28.832324 13.575757 21.591919 68.008081-42.666667 7.757576-21.591919 30.642424 4.137374-103.175757 64.646464z m-113.389899-42.278788l14.610101 23.143435 108.218182-68.008081-14.610101-23.143434-108.218182 68.00808z m17.583838 27.927273l14.092929 22.367677 108.218182-68.008081-14.222222-22.367677-108.088889 68.008081z" p-id="6943" fill="#515151"></path><path d="M262.791137 740.977778l-31.935354-4.266667 49.389899-31.030303-3.232323-6.076768c-4.654545-8.921212-12.024242-21.333333-21.850505-36.977777-9.826263-15.644444-18.747475-29.090909-26.375757-39.822223l-5.171718-7.240404 28.961617-6.076767 8.662626-5.430303c-2.973737-5.688889-6.076768-11.119192-9.179798-16.161617L220.641642 607.676768c-7.886869 4.913131-14.739394 10.343434-20.428283 16.032323l-2.068687 2.068687-31.935353-4.266667 76.541414-48.09697c-4.008081-6.076768-8.145455-12.153535-12.670707-18.10101l-5.430303-7.369697 45.769697-9.179798-6.464647 15.903031 2.327273 3.749495 36.977778-23.272728c-4.266667-6.464646-8.662626-12.8-13.058586-18.876767l-5.430303-7.240404 46.545454-10.084849-7.111111 17.842424 2.327273 3.749495 28.832323-18.10101 9.69697-24.824242 49.519192 7.886868-78.99798 49.648485c2.844444 4.266667 5.688889 8.145455 8.404041 11.507071l2.715151 3.361616 7.240404-4.525252L359.631541 528.808081l31.288889 4.266666-5.430303 13.187879c16.161616 25.6 27.410101 42.925253 33.745454 51.717172l2.456566 3.490909-18.488889 24.824242-6.464646-10.214141-35.943435 22.626263 7.369697 11.765656 61.284849-38.529293 8.662626-24.177777 51.2 6.981818-112.09697 70.335353c10.084848 16.032323 18.10101 28.056566 23.660606 35.684849l2.585859 3.620202-20.945455 25.987879-4.266666-7.49899c-7.369697-12.929293-15.90303-27.280808-25.470707-42.537374l-67.878788 42.666667c-7.886869 4.913131-14.739394 10.343434-20.428283 16.032323l-1.680808 1.939394z m93.99596-76.8l3.10303 4.913131c9.050505 14.480808 17.325253 28.056566 24.565656 40.59798l4.654546-5.688889c-6.206061-8.662626-14.222222-21.074747-24.69495-37.624242L347.995177 640.129293l-4.525252 2.844444 13.317172 21.204041z m-58.181819 13.575757l2.585859 4.137374-16.032323 20.686869 58.828283-36.977778-7.369697-11.765657-38.012122 23.919192zM243.397198 623.191919c6.593939 9.567677 13.834343 20.686869 21.721212 33.09899 7.369697 11.765657 13.446465 21.721212 17.971717 29.866667l3.878788-5.042424-4.39596-7.111112L249.732551 621.89899l-6.335353 1.292929z m38.141414 27.410101l7.886868 12.541414 98.262627-61.80202-7.886869-12.541414-98.262626 61.80202zM263.954773 622.674747l8.404041 13.317172 98.262626-61.80202-8.40404-13.317172-98.262627 61.80202z m182.044445-22.238383l-3.620202 9.955555 13.70505-8.533333-10.084848-1.422222z m-42.278788 4.525252l0.387879 0.646465 3.232323-4.39596c-6.981818-9.955556-17.971717-26.892929-33.357576-51.329293l-1.551515-2.585858 1.939394-4.783839-6.723232-0.90505-1.29293 4.008081 20.169697 32.193939 17.19596 27.151515zM259.041642 576.646465c3.232323 5.30101 6.593939 10.860606 9.826263 16.678788l3.361616-3.620202-21.333334-33.874748 0.646465-1.680808-6.593939 1.292929c3.878788 5.430303 7.49899 10.860606 10.860606 16.290909l3.232323 4.913132z m16.420202-3.620202l9.826263 15.644444 37.10707-23.272727-9.826262-15.644445-37.107071 23.272728z m43.959596-34.262627l9.69697 15.385859 3.232323-4.008081c-3.10303-4.137374-6.335354-8.791919-9.438384-13.834343l-11.636364-18.488889 1.163637-2.973738-7.628283 1.680809c4.008081 5.559596 7.757576 11.377778 11.507071 17.325252l3.10303 4.913131z m53.268687-48.226262l-4.008081 10.214141 13.834343-8.662626-9.826262-1.551515z" p-id="6944" fill="#515151"></path><path d="M636.31841 418.650505c31.159596 49.519192 51.458586 81.325253 61.155555 95.288889l-10.860606 14.610101c-11.377778-19.523232-30.642424-50.941414-57.793939-93.99596 0.775758 22.49697-2.456566 47.191919-9.567677 73.955556l-3.361616-1.163636c1.551515-17.325253 1.939394-34.133333 1.163636-50.29495s-3.749495-33.09899-8.533333-50.812121l-9.567677 6.076768c-8.274747 5.171717-15.515152 10.860606-21.462626 16.80808l-13.187879-1.810101 43.054546-27.022222-21.59192-34.391919c-8.274747 6.723232-19.781818 15.385859-34.391919 25.987879l-2.973737-2.585859c13.317172-11.377778 25.470707-22.884848 36.331313-34.521212 10.860606-11.636364 18.230303-21.591919 21.979798-29.866667l20.428283 4.913132c-7.369697 5.30101-17.325253 14.222222-29.99596 26.634343l22.626263 35.943434 11.50707-7.240404 5.430303-16.80808 25.341415 4.137373-39.305051 24.69495 10.989899 17.583838c14.480808-0.905051 24.824242-0.775758 31.030303 0.517172 6.206061 1.292929 10.472727 3.878788 12.8 7.628283 1.680808 2.715152 2.456566 6.076768 2.456566 10.214141-0.129293 4.137374-0.387879 6.464646-1.034344 6.852525-1.939394 1.163636-5.688889-0.517172-11.248484-5.171717-8.016162-7.111111-18.488889-12.412121-31.418182-16.161616z m-9.438384-78.739394l60.250505-37.882828c-2.973737-3.361616-6.076768-6.206061-9.438384-8.533334-3.232323-2.327273-9.69697-4.654545-19.006061-6.981818l0.905051-2.844444c15.773737-3.232323 25.341414-4.266667 28.832323-3.10303 3.361616 1.163636 5.688889 2.585859 6.59394 4.137373 1.680808 2.715152 1.551515 6.852525-0.258586 12.412122l41.115151-25.858586 5.042424-15.385859 23.789899 4.008081-103.434343 64.90505c-8.274747 5.171717-15.515152 10.860606-21.462626 16.808081l-12.929293-1.680808z m64.387879 43.054546c-9.69697-16.937374-19.135354-31.806061-28.056566-44.735354l15.515152-2.973737 53.656565-33.616162 4.137374-12.541414 19.006061 2.585858-5.171718 8.79192c5.688889 9.050505 11.377778 17.325253 17.066667 24.953535l-10.343434 13.187879-4.525253-7.240404-53.656566 33.616161 4.008081 6.335354-11.636363 11.636364z m42.278788 116.10505c-10.084848-17.454545-20.29899-34.391919-30.642425-50.941414-10.343434-16.549495-20.945455-32.581818-31.547474-48.09697l16.420202-1.422222 96.711111-60.767677 4.137373-12.541414 20.428283 2.715152-5.042424 10.989899 39.692929 63.094949c2.973737 4.783838 4.525253 9.438384 4.654546 13.834344 0.129293 4.39596-2.585859 10.084848-7.886869 17.195959-4.913131-3.620202-9.438384-5.171717-13.70505-4.783838-4.266667 0.387879-10.989899 2.456566-20.29899 6.076767l-2.456566-4.00808c8.921212-4.137374 16.678788-8.274747 23.014141-12.282829 3.232323-1.939394 4.913131-3.620202 5.042425-4.783838 0.129293-1.163636-0.517172-2.844444-1.810101-5.042424l-41.632324-66.327273-96.711111 60.767677 51.717172 82.230303-10.084848 14.092929z m-50.941415-159.676768l13.058586 20.816162 53.656566-33.616162-13.058586-20.816161-53.656566 33.616161z m96.840404 39.434344c8.016162 12.8 15.256566 23.531313 21.59192 32.193939l-9.438384 12.670707-5.042424-8.016161-30.642425 19.264646 3.490909 5.559596-9.438383 12.670707c-10.472727-17.971717-21.462626-35.555556-33.09899-52.751515l17.454545-2.068687 27.79798-17.454545 4.137374-12.541414 17.454545 2.327272-4.266667 8.145455z m-43.054545 24.824242l16.549495 26.375758 30.642424-19.264647-16.678788-26.375757-30.513131 19.264646z" p-id="6945" fill="#515151"></path><path d="M685.966895 539.022222L681.570935 531.393939c-9.955556-17.066667-25.858586-42.925253-47.191919-77.187878-1.034343 17.454545-4.266667 36.20202-9.567677 55.725252l-1.680808 6.076768-13.575758-4.783839 0.387879-4.525252c1.551515-16.937374 1.939394-33.616162 1.163636-49.519192-0.646465-13.317172-2.844444-27.410101-6.464646-42.020202l-2.844444 1.810101c-7.886869 4.913131-14.739394 10.343434-20.428283 16.032323l-2.068687 2.068687-31.935354-4.266667 51.717172-32.452525-14.99798-23.919192c-7.628283 6.076768-17.454545 13.317172-29.478788 22.109091l-3.749495 2.715152-11.50707-10.084849 5.171717-4.395959c13.058586-11.119192 25.212121-22.626263 35.943434-34.133334 10.472727-11.119192 17.454545-20.686869 20.816162-28.315151l1.939394-4.39596 34.262626 8.274748 40.210101-25.341415c-1.163636-1.034343-2.327273-1.939394-3.490909-2.844444-1.422222-1.034343-5.688889-3.232323-16.937374-5.947475l-6.076767-1.422222 3.878787-12.024242 3.361617-0.646465c12.024242-2.456566 20.428283-3.620202 25.858585-3.620202 2.585859 0 4.39596 0.258586 6.076768 0.775758 4.783838 1.680808 7.886869 3.749495 9.69697 6.593939 0.775758 1.292929 1.422222 2.715152 1.680808 4.266667l29.349495-18.488889 5.947475-18.10101 43.959596 7.240404-42.537374 26.634343 26.246464 3.620202-7.757575 13.317172c5.042424 7.757576 9.955556 14.99798 14.868687 21.591919l2.715151 3.620202-18.230303 23.272727-5.818182-9.309091-43.70101 27.539394 3.361616 5.30101-14.222222 14.351516 83.652525-52.49293 4.913132-15.256565 33.09899 4.525252-7.111112 15.256566 38.012122 60.379798c3.620202 5.688889 5.430303 11.377778 5.559596 16.808081 0.129293 5.818182-2.844444 12.541414-9.050505 20.816161l-3.49091 4.525253-4.654545-3.361616c-3.749495-2.715152-6.981818-4.008081-9.69697-3.749495-2.456566 0.258586-7.757576 1.422222-18.747474 5.688889l-4.525253 1.680808L795.348713 427.959596l-4.39596 5.818182-6.464646-10.214142-20.816162 13.058586 2.585859 4.008081-17.066667 22.884849-4.39596-7.628283c-10.343434-17.713131-21.333333-35.426263-32.840404-52.363637l-3.232323-4.783838-9.179798 5.688889 50.682828 80.678788-17.325252 24.565656-4.525253-7.886868c-10.214141-17.583838-20.428283-34.650505-30.513131-50.682829-4.008081-6.335354-8.016162-12.670707-12.153535-19.00606v0.775757c-0.129293 6.206061-0.775758 9.69697-3.749495 11.636364-1.292929 0.775758-2.844444 1.292929-4.525253 1.292929-3.620202 0-7.886869-2.068687-13.575757-6.852525l-0.129293-0.129293c-3.749495-3.361616-8.274747-6.206061-13.446465-8.791919 25.858586 41.115152 43.313131 68.008081 51.846465 80.420202l2.327272 3.490909-18.488888 25.082828z m-63.741415-125.931313l11.507071 18.359596c23.660606 37.624242 41.50303 66.715152 53.39798 86.626263l3.10303-4.266667c-10.472727-15.385859-29.737374-45.640404-58.957576-92.056566l-13.446464-21.462626-27.280808-43.442424c-0.517172 0.517172-1.034343 1.163636-1.680808 1.810101l-0.517172 0.517172 26.892929 42.666666-1.680808 1.034344 0.387879 1.551515c4.783838 17.454545 7.757576 34.391919 8.662626 50.424242 0.517172-6.981818 0.646465-13.705051 0.387879-20.29899l-0.775758-21.462626z m59.474748-8.145454c8.921212 13.187879 17.713131 26.634343 26.117172 40.080808 8.662626 13.834343 17.454545 28.315152 26.246464 43.313131l2.456566-3.490909-50.424243-80.290909-4.395959 0.387879z m45.252525 0c8.145455 12.282828 16.032323 24.824242 23.531313 37.494949l1.810101-2.456566-4.525252-7.111111-17.713132-28.185858-3.10303 0.258586z m-55.595959 25.212121c1.034343 0.905051 1.939394 1.551515 2.715151 2.19798 0-2.715152-0.517172-4.913131-1.551515-6.464647-1.422222-2.327273-4.525253-4.008081-9.050505-5.042424-1.939394-0.387879-4.525253-0.646465-7.49899-0.905051 5.947475 2.973737 10.989899 6.335354 15.385859 10.214142z m114.812121-51.717172c7.240404 11.507071 13.834343 21.20404 19.523232 28.961616l2.585859 3.490909-12.412122 16.678788 5.559596-2.585858c8.662626-4.008081 16.290909-8.016162 22.367677-11.89495 0.775758-0.517172 1.292929-0.905051 1.680808-1.163636-0.129293-0.129293-0.258586-0.387879-0.387879-0.646465l-38.529292-61.414141-19.781819 12.412121 25.729293 3.490909-6.335353 12.670707z m44.476767 44.218182c2.585859 0.387879 5.30101 1.292929 8.016162 2.585858 3.232323-5.042424 3.749495-7.886869 3.749495-9.30909-0.129293-3.361616-1.292929-6.981818-3.749495-10.860607l-41.373737-65.810101 3.10303-6.723232-7.757576-1.034343-1.292929 4.008081 43.70101 69.559595c2.068687 3.232323 2.973737 6.076768 2.715152 8.662627-0.646465 4.008081-3.878788 6.723232-7.111112 8.921212z m-86.238383-17.19596l10.343434 16.549495 20.816162-13.058586-10.343435-16.549495-20.816161 13.058586z m43.959596 2.068687l3.620202 5.688889 1.810101-2.456566c-5.688889-8.016162-12.153535-17.713131-19.264647-28.961616l-1.810101-2.844444 1.939394-3.878788-4.525252-0.646465-0.905051 2.585859 19.135354 30.513131z m-138.472728 0.646465c6.852525 0 12.153535 0.387879 16.161616 1.292929 2.068687 0.517172 4.137374 1.034343 5.947475 1.810101-1.810101-2.715152-3.620202-5.30101-5.430303-8.016162l-5.688889-8.274747 24.953536-2.19798 3.232323-2.068687-2.844445-4.913131c-3.232323-5.559596-6.335354-10.860606-9.438383-15.90303l-46.028283 28.961616 6.076767 9.69697c4.783838-0.258586 9.179798-0.387879 13.058586-0.387879z m110.804041-41.890909l-44.99394 28.315151 16.678788-1.939394 24.824243-15.644444 3.490909-10.731313z m-156.185859-9.050505l16.937374 27.022222 4.783838-2.973738 6.335354-19.523232 43.442424 7.111111c-6.076768-9.955556-12.024242-19.006061-17.713131-27.280808l-3.490909-5.042424c-4.008081 2.973737-7.49899 6.076768-10.731314 9.309091l-2.068686 2.068687-23.919192-3.232324c-4.008081 3.490909-8.533333 7.757576-13.575758 12.541415z m36.072727 17.583838l-1.680808 5.171717 6.852526-4.395959-5.171718-0.775758z m32.323233-32.581818c6.335354 9.438384 12.8 19.911111 19.523232 31.159596l2.844444-2.844445-18.230303-29.090909-4.137373 0.775758z m17.713131-1.034344l6.852525 10.860606 43.70101-27.539393-6.852525-10.860607-43.70101 27.539394z m-80.808081-9.696969c-2.19798 4.008081-5.042424 8.274747-8.533333 12.8 4.783838-4.525253 9.050505-8.40404 12.929293-11.636364l-4.39596-1.163636z m120.630303-43.183839l-65.810101 41.373738c-1.680808 1.034343-3.361616 2.19798-4.913131 3.232323l16.808081-3.232323 50.941414-31.935354 2.973737-9.438384z m23.660606 34.909091l3.232324 5.171717 2.585858-3.232323c-4.783838-6.723232-9.69697-13.963636-14.610101-21.721212l-1.939394-2.973737 2.585859-4.266667-5.559596-0.775758-1.29293 4.008081 14.99798 23.789899z m-76.670707-36.719192c1.422222 0.775758 2.715152 1.422222 3.749495 2.19798 2.715152 2.068687 5.430303 4.39596 8.016162 6.981818l0.129293-0.258586c1.551515-4.525253 1.163636-6.852525 0.775757-7.498989 0 0-0.775758-0.775758-3.620202-1.810101 0 0-0.517172-0.129293-2.19798-0.129293-1.810101 0-4.137374 0.129293-6.852525 0.517171zM744.92447 262.464646l-1.292929 3.749495 5.042424-3.10303-3.749495-0.646465z" p-id="6946" fill="#515151"></path></svg>