<?xml version="1.0" standalone="no"?><!DOCTYPE svg PUBLIC "-//W3C//DTD SVG 1.1//EN" "http://www.w3.org/Graphics/SVG/1.1/DTD/svg11.dtd"><svg t="1654157864469" class="icon" viewBox="0 0 1024 1024" version="1.1" xmlns="http://www.w3.org/2000/svg" p-id="24656" xmlns:xlink="http://www.w3.org/1999/xlink" width="32" height="32"><defs><style type="text/css">@font-face { font-family: feedback-iconfont; src: url("//at.alicdn.com/t/font_1031158_u69w8yhxdu.woff2?t=1630033759944") format("woff2"), url("//at.alicdn.com/t/font_1031158_u69w8yhxdu.woff?t=1630033759944") format("woff"), url("//at.alicdn.com/t/font_1031158_u69w8yhxdu.ttf?t=1630033759944") format("truetype"); }
</style></defs><path d="M927.8 193.7c0.1-1.6 0.2-3.2 0.2-4.8 0-15.7-6.3-30-18.7-42.9-6.9-7.2-15.8-13.9-26.5-20.1-21.9-12.7-52.3-23.9-90.5-33.3C717.1 74.2 617.5 64 512 64S306.9 74.2 231.7 92.6c-38.2 9.4-68.6 20.6-90.5 33.3-2.4 1.4-4.8 2.9-7 4.3-18.5 12.1-30.4 25.9-35.4 41.2-1.6 4.8-2.5 9.8-2.7 15H96v649.2c0 24.3 15.2 45.4 45.2 62.8 21.9 12.6 52.3 23.8 90.5 33.1C306.9 949.9 406.5 960 512 960s205.1-10.1 280.3-28.5c38.2-9.3 68.6-20.5 90.5-33.1 30-17.4 45.2-38.5 45.2-62.8V394h-0.2V193.7z m-58.3 419.6c-0.3 0.4-0.7 1-1.5 1.8l-0.6 0.6c-1.2 1.2-3 2.8-5.5 4.7-0.3 0.2-0.5 0.4-0.8 0.6-1.4 1-3 2.1-4.8 3.2-0.3 0.2-0.6 0.4-0.9 0.5-2.2 1.3-4.7 2.7-7.6 4.2-0.2 0.1-0.5 0.3-0.7 0.4-0.2 0.1-0.5 0.3-0.7 0.4-0.5 0.3-1 0.5-1.5 0.7-2.3 1.1-4.9 2.3-7.7 3.5-0.6 0.3-1.2 0.5-1.8 0.8 0 0-0.1 0-0.1 0.1-0.5 0.2-1.1 0.5-1.7 0.7-4.1 1.7-8.6 3.4-13.6 5.2-0.8 0.3-1.6 0.6-2.4 0.8-4.2 1.4-8.7 2.9-13.6 4.3-0.3 0.1-0.7 0.2-1 0.3-0.8 0.2-1.5 0.5-2.3 0.7-0.5 0.2-1.1 0.3-1.7 0.5-0.3 0.1-0.7 0.2-1 0.3-0.5 0.1-1 0.3-1.5 0.4-2 0.6-4.1 1.1-6.2 1.7l-3.3 0.9c-6.9 1.8-14.4 3.6-22.5 5.4-69.1 15.2-158.8 23.6-252.6 23.6s-183.5-8.4-252.6-23.6c-8.1-1.8-15.6-3.6-22.5-5.4l-3.3-0.9c-2.1-0.6-4.2-1.1-6.2-1.7-0.5-0.1-1-0.3-1.5-0.4-0.3-0.1-0.7-0.2-1-0.3-0.6-0.2-1.1-0.3-1.7-0.5-0.8-0.2-1.6-0.5-2.3-0.7-0.3-0.1-0.7-0.2-1-0.3-4.9-1.5-9.4-2.9-13.6-4.3-0.8-0.3-1.6-0.6-2.4-0.8-5-1.8-9.5-3.5-13.6-5.2-0.6-0.2-1.1-0.5-1.7-0.7 0 0-0.1 0-0.1-0.1-0.6-0.3-1.2-0.5-1.8-0.8-2.8-1.2-5.4-2.4-7.7-3.5-0.5-0.3-1-0.5-1.5-0.7-0.3-0.1-0.5-0.3-0.7-0.4-0.2-0.1-0.5-0.2-0.7-0.4-2.9-1.5-5.4-2.9-7.6-4.2-0.3-0.2-0.6-0.4-0.9-0.5-1.8-1.1-3.4-2.2-4.8-3.2-0.3-0.2-0.5-0.4-0.8-0.6-2.5-1.9-4.3-3.4-5.5-4.7l-0.6-0.6c-0.7-0.8-1.2-1.4-1.5-1.8V463.8c2 1 4.1 1.9 6.2 2.9 0.6 0.3 1.1 0.5 1.7 0.7l2.1 0.9c0.8 0.3 1.5 0.6 2.3 1 0.7 0.3 1.3 0.6 2 0.8 0.7 0.3 1.4 0.6 2.1 0.8 3.6 1.4 7.3 2.9 11.2 4.3 0.7 0.3 1.5 0.5 2.2 0.8 4.7 1.7 9.7 3.3 14.8 4.9 1.7 0.5 3.4 1.1 5.1 1.6 1.2 0.4 2.4 0.7 3.6 1.1l3.3 0.9c1.4 0.4 2.8 0.8 4.3 1.2 1.7 0.5 3.3 0.9 5 1.4 1.5 0.4 3.1 0.8 4.7 1.2 1 0.3 2.1 0.5 3.1 0.8l3.6 0.9c75.2 18.4 174.8 28.5 280.3 28.5h10.5c3.1 0 6.1 0 9.2-0.1h1.9c2.3 0 4.7-0.1 7-0.1 5.2-0.1 10.4-0.2 15.5-0.4 2.9-0.1 5.8-0.2 8.6-0.3 3.2-0.1 6.3-0.2 9.5-0.3 1.6-0.1 3.1-0.1 4.7-0.2 6.3-0.3 12.5-0.6 18.7-0.9 1.2-0.1 2.4-0.1 3.6-0.2l10.2-0.6c1.3-0.1 2.6-0.2 3.8-0.2 7.9-0.5 15.7-1.1 23.4-1.8 1.5-0.1 3-0.3 4.5-0.4 3.8-0.3 7.6-0.7 11.4-1 1.5-0.1 3-0.3 4.4-0.4 12.5-1.2 24.8-2.6 36.8-4.2 1.2-0.2 2.4-0.3 3.6-0.5 2.9-0.4 5.7-0.8 8.6-1.2 1.3-0.2 2.6-0.4 3.8-0.5 5.5-0.8 11-1.6 16.3-2.5 2.5-0.4 4.9-0.8 7.4-1.2 12.1-2 23.8-4.2 35-6.6 1.2-0.3 2.4-0.5 3.6-0.8 2.3-0.5 4.7-1 6.9-1.5 1.2-0.3 2.4-0.5 3.6-0.8 1.2-0.3 2.4-0.5 3.5-0.8 5.3-1.3 10.4-2.5 15.4-3.9 0.9-0.2 1.9-0.5 2.8-0.7 0.9-0.3 1.8-0.5 2.7-0.8l5.4-1.5c20.3-5.9 38-12.3 52.9-19.3 0.7-0.3 1.3-0.6 2-1v149.5zM154.3 258.9c1 0.5 2 1 3 1.4 19.9 9.3 44.8 17.6 74.4 24.9 75.2 18.5 174.8 28.6 280.3 28.6s205.1-10.2 280.3-28.6c31-7.6 56.8-16.4 77.1-26.2v133.5c-0.8 1.2-3.3 4.1-9 8.1l-0.9 0.6c-0.9 0.6-1.9 1.3-3 1.9-1.1 0.7-2.2 1.4-3.5 2.1-0.4 0.2-0.8 0.5-1.3 0.7-0.4 0.2-0.9 0.5-1.3 0.7-0.5 0.3-0.9 0.5-1.4 0.7-0.2 0.1-0.5 0.3-0.7 0.4-0.2 0.1-0.5 0.3-0.7 0.4-0.3 0.1-0.5 0.3-0.8 0.4-0.3 0.1-0.5 0.3-0.8 0.4-0.4 0.2-0.8 0.4-1.1 0.6-0.4 0.2-0.8 0.4-1.3 0.6-0.5 0.2-0.9 0.4-1.4 0.7-0.7 0.3-1.3 0.6-2.1 0.9-0.3 0.1-0.6 0.3-0.9 0.4-1.7 0.7-3.4 1.5-5.3 2.3l-1.5 0.6c-1.7 0.7-3.5 1.4-5.4 2.1-0.4 0.2-0.8 0.3-1.1 0.4-1.2 0.5-2.5 0.9-3.8 1.4l-0.9 0.3c-2.1 0.8-4.4 1.5-6.7 2.3-0.9 0.3-1.9 0.6-2.9 0.9-2.2 0.7-4.4 1.4-6.7 2.1-0.8 0.3-1.7 0.5-2.5 0.8-7.3 2.1-15.3 4.3-24.1 6.5-0.6 0.2-1.2 0.3-1.9 0.5-0.6 0.2-1.3 0.3-1.9 0.5-3.2 0.8-6.5 1.5-9.9 2.3-69.1 15.2-158.8 23.6-252.6 23.6s-183.5-8.4-252.6-23.6c-1.2-0.3-2.4-0.5-3.6-0.8-0.6-0.1-1.2-0.3-1.8-0.4-0.3-0.1-0.6-0.2-1-0.2-0.7-0.2-1.4-0.3-2.1-0.5-0.7-0.2-1.5-0.3-2.2-0.5-1.1-0.3-2.3-0.5-3.4-0.8-6.4-1.5-12.3-3.1-17.8-4.7-0.7-0.2-1.5-0.4-2.2-0.6-1.4-0.4-2.9-0.8-4.3-1.3-0.9-0.3-1.8-0.5-2.7-0.8l-3.9-1.2c-1.2-0.4-2.5-0.8-3.6-1.2-0.4-0.2-0.9-0.3-1.3-0.4-0.8-0.3-1.6-0.5-2.4-0.8-0.8-0.3-1.7-0.6-2.5-0.9-1.1-0.4-2.1-0.7-3.2-1.1-2.6-1-5.1-1.9-7.5-2.8-0.8-0.3-1.5-0.6-2.3-0.9-0.1-0.1-0.2-0.1-0.3-0.1-0.6-0.3-1.2-0.5-1.8-0.8-0.3-0.1-0.6-0.3-0.9-0.4-0.3-0.1-0.6-0.2-0.9-0.4-0.3-0.1-0.6-0.2-0.9-0.4-1.4-0.6-2.8-1.2-4.1-1.8-0.5-0.2-1-0.5-1.5-0.7-0.5-0.2-1-0.5-1.5-0.7-3.9-1.9-7.2-3.7-10.1-5.3-2.1-1.2-3.9-2.4-5.5-3.5-0.1-0.1-0.2-0.1-0.2-0.2-1.8-1.3-3.3-2.4-4.5-3.4-0.2-0.2-0.4-0.3-0.5-0.4-0.3-0.2-0.5-0.4-0.7-0.7l-0.6-0.6c-0.3-0.3-0.5-0.5-0.8-0.7-0.2-0.2-0.5-0.5-0.6-0.7-0.3-0.3-0.5-0.6-0.8-0.9-0.6-0.7-0.9-1.1-1-1.4V258.9z m11-77.8c12.8-8.5 39.5-21.3 94.1-33.4C328.5 132.4 418.2 124 512 124s183.5 8.4 252.6 23.7c54.5 12.1 81.3 24.9 94.1 33.4 5.2 3.4 8.1 6.2 9.6 7.9-5.3 6-27.1 24.3-103.7 41.3C695.5 245.6 605.8 254 512 254s-183.5-8.4-252.6-23.7C182.8 213.4 161 195 155.7 189c1.6-1.8 4.4-4.5 9.6-7.9z m-11 211.3c0.1 0.4 0.2 0.9 0.2 1.6h-0.2v-1.6zM869.5 834c-2.4 3.5-20 23.9-104.8 42.6-69.1 15.2-158.8 23.6-252.6 23.6s-183.5-8.4-252.6-23.6C174.6 858 157 837.5 154.5 834V684.5c2 1 4.1 1.9 6.2 2.9 0.6 0.3 1.1 0.5 1.7 0.7l2.1 0.9c0.8 0.3 1.5 0.6 2.3 1 0.7 0.3 1.3 0.6 2 0.8 0.7 0.3 1.4 0.6 2.1 0.8 3.6 1.4 7.3 2.9 11.2 4.3 0.7 0.3 1.5 0.5 2.2 0.8 3.5 1.2 7.1 2.5 10.9 3.7 1 0.3 2.1 0.7 3.1 1 1 0.3 2.1 0.7 3.1 1 4.4 1.3 8.9 2.6 13.5 3.9 1.8 0.5 3.7 1 5.5 1.5 0.9 0.3 1.9 0.5 2.8 0.7 0.9 0.2 1.9 0.5 2.8 0.7 1.9 0.5 3.8 1 5.7 1.4 75.2 18.4 174.8 28.5 280.3 28.5s205.1-10.1 280.3-28.5c1.9-0.5 3.9-1 5.7-1.4 0.9-0.2 1.9-0.5 2.8-0.7 0.9-0.2 1.9-0.5 2.8-0.7 1.9-0.5 3.7-1 5.5-1.5 4.6-1.3 9.1-2.6 13.5-3.9 1.1-0.3 2.1-0.6 3.1-1 1-0.3 2.1-0.7 3.1-1 3.7-1.2 7.4-2.4 10.9-3.7 0.7-0.3 1.5-0.5 2.2-0.8 3.9-1.4 7.6-2.8 11.2-4.3 0.7-0.3 1.4-0.6 2.1-0.8 0.7-0.3 1.3-0.5 2-0.8 0.8-0.3 1.5-0.6 2.3-1l2.1-0.9c0.6-0.2 1.1-0.5 1.7-0.7 2.1-0.9 4.2-1.9 6.2-2.9V834z" fill="#ffffff" p-id="24657"></path></svg>