<?xml version="1.0" standalone="no"?><!DOCTYPE svg PUBLIC "-//W3C//DTD SVG 1.1//EN" "http://www.w3.org/Graphics/SVG/1.1/DTD/svg11.dtd"><svg t="1654084257087" class="icon" viewBox="0 0 1024 1024" version="1.1" xmlns="http://www.w3.org/2000/svg" p-id="4146" xmlns:xlink="http://www.w3.org/1999/xlink" width="32" height="32"><defs><style type="text/css">@font-face { font-family: feedback-iconfont; src: url("//at.alicdn.com/t/font_1031158_u69w8yhxdu.woff2?t=1630033759944") format("woff2"), url("//at.alicdn.com/t/font_1031158_u69w8yhxdu.woff?t=1630033759944") format("woff"), url("//at.alicdn.com/t/font_1031158_u69w8yhxdu.ttf?t=1630033759944") format("truetype"); }
</style></defs><path d="M858.112 772.096c-28.672 0-53.248 14.336-69.632 34.816L716.8 745.472c32.768-43.008 53.248-98.304 53.248-157.696 0-141.312-112.64-256-251.904-260.096l0-77.824c43.008-4.096 77.824-40.96 77.824-86.016 0-47.104-38.912-86.016-86.016-86.016-47.104 0-86.016 38.912-86.016 86.016 0 45.056 34.816 81.92 77.824 86.016L501.76 327.68c-139.264 6.144-251.904 118.784-251.904 260.096 0 59.392 20.48 114.688 53.248 157.696l-71.68 59.392c-16.384-20.48-40.96-34.816-69.632-34.816-47.104 0-86.016 38.912-86.016 86.016 0 47.104 38.912 86.016 86.016 86.016 47.104 0 86.016-38.912 86.016-86.016 0-12.288-2.048-24.576-8.192-36.864l73.728-61.44c47.104 53.248 116.736 88.064 194.56 88.064s147.456-34.816 194.56-88.064l73.728 61.44c-4.096 10.24-8.192 22.528-8.192 36.864 0 47.104 38.912 86.016 86.016 86.016s86.016-38.912 86.016-86.016C946.176 811.008 907.264 772.096 858.112 772.096zM512 751.616c-77.824 0-145.408-57.344-157.696-133.12L307.2 618.496l65.536-79.872 38.912 45.056 0 0 32.768 36.864-53.248 0c14.336 55.296 63.488 96.256 120.832 96.256 69.632 0 124.928-57.344 124.928-126.976s-55.296-126.976-124.928-126.976c-40.96 0-75.776 18.432-98.304 49.152l0 0c0 0-14.336-2.048-18.432-6.144C389.12 497.664 389.12 485.376 389.12 483.328c28.672-36.864 73.728-59.392 124.928-59.392 90.112 0 161.792 73.728 161.792 163.84C673.792 677.888 602.112 751.616 512 751.616z" p-id="4147" fill="#ffffff"></path></svg>