<?xml version="1.0" standalone="no"?><!DOCTYPE svg PUBLIC "-//W3C//DTD SVG 1.1//EN" "http://www.w3.org/Graphics/SVG/1.1/DTD/svg11.dtd"><svg t="1654157478793" class="icon" viewBox="0 0 1024 1024" version="1.1" xmlns="http://www.w3.org/2000/svg" p-id="16164" xmlns:xlink="http://www.w3.org/1999/xlink" width="32" height="32"><defs><style type="text/css">@font-face { font-family: feedback-iconfont; src: url("//at.alicdn.com/t/font_1031158_u69w8yhxdu.woff2?t=1630033759944") format("woff2"), url("//at.alicdn.com/t/font_1031158_u69w8yhxdu.woff?t=1630033759944") format("woff"), url("//at.alicdn.com/t/font_1031158_u69w8yhxdu.ttf?t=1630033759944") format("truetype"); }
</style></defs><path d="M1019 78.75A32 32 0 0 0 992 64H777a96.27 96.27 0 0 0-87.16 55.77L544 435.64 398.21 119.77A96.27 96.27 0 0 0 311.05 64H96a32 32 0 0 0-29 45.41l384 832A32 32 0 0 0 480 960h87a96.27 96.27 0 0 0 87.16-55.77L1021 109.41a32 32 0 0 0-2-30.66z m-271.11 67.84A32.11 32.11 0 0 1 777 128h37L608 574.3 579.24 512zM500.47 896L146 128h57.52L558 896zM608 851.64L274 128h37a32.11 32.11 0 0 1 29.06 18.59l174.82 378.67 0.15 0.33L579 664.08a32 32 0 0 0 58 0.11v-0.11L884.47 128H942z" fill="#ffffff" p-id="16165"></path></svg>