<svg xmlns="http://www.w3.org/2000/svg" viewBox="0.006116670090705156 0.006116670090705156 94.90999603271484 99.99388885498047">
    <defs>
        <linearGradient id="65d6c37f-5b5d-4a91-9aa2-f272f5eccee5" x1="34.93" y1="68.73" x2="94.92" y2="68.73" gradientUnits="userSpaceOnUse">
            <stop offset="0" stop-color="#0ED3AC"></stop>
            <stop offset="1" stop-color="#1e9eed"></stop>
        </linearGradient>
        <linearGradient id="dfd56bc0-43ba-4af7-94ec-3b1da7d6ed19" x1="16.82" y1="45.25" x2="48.77" y2="87.85" gradientUnits="userSpaceOnUse">
            <stop offset="0" stop-color="#1e9eed"></stop>
            <stop offset="1" stop-color="#1672fa"></stop>
        </linearGradient>
        <linearGradient id="fc645442-cfc1-4fff-93cf-f94cdf731380" x1="50.23" y1="22.05" x2="102.44" y2="79.48" gradientUnits="userSpaceOnUse">
            <stop offset="0" stop-color="#1e9eed"></stop>
            <stop offset="1" stop-color="#1672fa"></stop>
        </linearGradient>
        <linearGradient id="21bd3b15-b7b2-4f5f-a1e7-b149489d88f1" x1="38.39" y1="22.98" x2="18.96" y2="53.89" gradientUnits="userSpaceOnUse">
            <stop offset="0" stop-color="#0ED3AC"></stop>
            <stop offset="1" stop-color="#1e9eed"></stop>
        </linearGradient>
    </defs>
    <g>
        <g>
            <path d="M47.46 100a12.53 12.53 0 0 1-12.53-12.53c0-13 5.39-25.52 15.17-35.34 9.28-9.32 21.05-14.66 32.28-14.66a12.53 12.53 0 1 1 0 25.06C73.54 62.53 60 73.7 60 87.47A12.53 12.53 0 0 1 47.46 100z" opacity=".8" fill="url(#65d6c37f-5b5d-4a91-9aa2-f272f5eccee5)"></path>
            <path d="M47.46 100a12.53 12.53 0 0 1-12.53-12.53c0-13.77-13.56-24.94-22.4-24.94a12.53 12.53 0 0 1 0-25.06c11.24 0 23 5.34 32.28 14.66C54.6 62 60 74.5 60 87.47A12.53 12.53 0 0 1 47.46 100z" opacity=".8" fill="url(#dfd56bc0-43ba-4af7-94ec-3b1da7d6ed19)"></path>
            <path d="M82.38 62.53c-11.23 0-23-5.34-32.28-14.66-9.78-9.82-15.17-22.37-15.17-35.34a12.53 12.53 0 0 1 25.06 0C60 26.3 73.54 37.47 82.38 37.47a12.53 12.53 0 1 1 0 25.06z" opacity=".8" fill="url(#fc645442-cfc1-4fff-93cf-f94cdf731380)"></path>
            <path d="M12.53 62.53a12.53 12.53 0 0 1 0-25.06c8.84 0 22.4-11.17 22.4-24.94a12.53 12.53 0 0 1 25.06 0c0 13-5.39 25.52-15.18 35.34-9.27 9.32-21.04 14.66-32.28 14.66z" opacity=".8" fill="url(#21bd3b15-b7b2-4f5f-a1e7-b149489d88f1)"></path>
        </g>
    </g>
</svg>